<svg width="633" height="200" viewBox="0 0 633 200" fill="none" xmlns="http://www.w3.org/2000/svg">
<path d="M4.14453 4.74268V11H2.8501V6.24658L1.15283 6.69238V5.67188L3.99951 4.74268H4.14453ZM12.1753 7.3208V8.42188C12.1753 8.87663 12.118 9.2723 12.0034 9.60889C11.8924 9.94189 11.7331 10.2176 11.5254 10.436C11.3213 10.6545 11.0742 10.8174 10.7842 10.9248C10.4977 11.0322 10.179 11.0859 9.82812 11.0859C9.47721 11.0859 9.15674 11.0322 8.8667 10.9248C8.58024 10.8174 8.33317 10.6545 8.12549 10.436C7.91781 10.2176 7.75667 9.94189 7.64209 9.60889C7.52751 9.2723 7.47021 8.87663 7.47021 8.42188V7.3208C7.47021 6.86605 7.52572 6.47217 7.63672 6.13916C7.7513 5.80615 7.91243 5.53044 8.12012 5.31201C8.3278 5.09001 8.57487 4.92529 8.86133 4.81787C9.14779 4.71045 9.46647 4.65674 9.81738 4.65674C10.1683 4.65674 10.4888 4.71045 10.7788 4.81787C11.0688 4.92529 11.3177 5.09001 11.5254 5.31201C11.7331 5.53044 11.8924 5.80615 12.0034 6.13916C12.118 6.47217 12.1753 6.86605 12.1753 7.3208ZM10.8755 8.52393V7.20801C10.8755 6.94661 10.8522 6.72103 10.8057 6.53125C10.7591 6.33789 10.6911 6.17855 10.6016 6.05322C10.512 5.9279 10.401 5.83659 10.2686 5.7793C10.1396 5.71842 9.98926 5.68799 9.81738 5.68799C9.65267 5.68799 9.50407 5.71842 9.37158 5.7793C9.24268 5.83659 9.13346 5.9279 9.04395 6.05322C8.95443 6.17855 8.88639 6.33789 8.83984 6.53125C8.79329 6.72103 8.77002 6.94661 8.77002 7.20801V8.52393C8.77002 8.7889 8.79329 9.01807 8.83984 9.21143C8.88639 9.40479 8.95443 9.56413 9.04395 9.68945C9.13704 9.81478 9.24984 9.90788 9.38232 9.96875C9.51481 10.0296 9.66341 10.0601 9.82812 10.0601C9.99642 10.0601 10.145 10.0296 10.2739 9.96875C10.4064 9.90788 10.5174 9.81478 10.6069 9.68945C10.6965 9.56413 10.7627 9.40479 10.8057 9.21143C10.8522 9.01807 10.8755 8.7889 10.8755 8.52393ZM15.5869 4.74268V11H14.2925V4.74268H15.5869ZM19.5991 4.74268L16.9351 7.84717L15.4312 9.31348L15.1304 8.09961L16.1938 6.7998L17.9878 4.74268H19.5991ZM18.165 11L16.0972 8.11572L17.0425 7.31543L19.7119 11H18.165Z" fill="#949494"/>
<path d="M37 7.5L25 7.5" stroke="#655B96"/>
<path d="M8.67627 26.4775H8.77832C9.16504 26.4775 9.49626 26.4399 9.77197 26.3647C10.0513 26.286 10.2804 26.1678 10.4595 26.0103C10.6385 25.8527 10.771 25.6558 10.8569 25.4194C10.9465 25.1795 10.9912 24.8984 10.9912 24.5762V23.416C10.9912 23.1976 10.9644 23.0096 10.9106 22.8521C10.8569 22.6909 10.7817 22.5566 10.6851 22.4492C10.5884 22.3418 10.4756 22.263 10.3467 22.2129C10.2178 22.1592 10.0781 22.1323 9.92773 22.1323C9.70931 22.1323 9.52132 22.186 9.36377 22.2935C9.20622 22.4009 9.08626 22.5459 9.00391 22.7285C8.92155 22.9076 8.88037 23.1063 8.88037 23.3247C8.88037 23.5324 8.91976 23.7222 8.99854 23.894C9.07731 24.0659 9.19548 24.202 9.35303 24.3022C9.51058 24.4025 9.70931 24.4526 9.94922 24.4526C10.1211 24.4526 10.2751 24.4258 10.4111 24.3721C10.5508 24.3184 10.6689 24.2485 10.7656 24.1626C10.8659 24.0731 10.9429 23.9764 10.9966 23.8726C11.0539 23.7687 11.0843 23.6649 11.0879 23.561L11.4692 23.9263C11.4621 24.1662 11.3797 24.4007 11.2222 24.6299C11.0646 24.859 10.8498 25.0488 10.5776 25.1992C10.3091 25.346 9.99756 25.4194 9.64307 25.4194C9.19906 25.4194 8.82487 25.3317 8.52051 25.1562C8.21615 24.9772 7.98519 24.7301 7.82764 24.415C7.67008 24.0999 7.59131 23.7365 7.59131 23.3247C7.59131 22.9165 7.6862 22.5459 7.87598 22.2129C8.06576 21.8763 8.3361 21.6077 8.68701 21.4072C9.03792 21.2031 9.4515 21.1011 9.92773 21.1011C10.293 21.1011 10.6188 21.1602 10.9053 21.2783C11.1953 21.3929 11.4424 21.5612 11.6465 21.7832C11.8542 22.0016 12.0117 22.2684 12.1191 22.5835C12.2266 22.8986 12.2803 23.2567 12.2803 23.6577V24.0498C12.2803 24.6048 12.2087 25.0972 12.0654 25.5269C11.9222 25.953 11.7056 26.3146 11.4155 26.6118C11.1291 26.9054 10.7674 27.1292 10.3306 27.2832C9.89372 27.4336 9.37988 27.5088 8.78906 27.5088H8.67627V26.4775ZM15.7563 21.187V27.4443H14.4619V21.187H15.7563ZM19.7686 21.187L17.1045 24.2915L15.6006 25.7578L15.2998 24.5439L16.3633 23.2441L18.1572 21.187H19.7686ZM18.3345 27.4443L16.2666 24.5601L17.2119 23.7598L19.8813 27.4443H18.3345Z" fill="#949494"/>
<path d="M37 23.9443H25" stroke="#655B96"/>
<path d="M12.3555 42.1755C12.3555 42.4727 12.2946 42.7341 12.1729 42.9597C12.0547 43.1817 11.89 43.3679 11.6787 43.5183C11.4674 43.6687 11.2186 43.7833 10.9321 43.8621C10.6457 43.9373 10.3341 43.9749 9.99756 43.9749C9.54997 43.9749 9.14714 43.9086 8.78906 43.7761C8.43457 43.6401 8.15348 43.4377 7.9458 43.1692C7.73812 42.9006 7.63428 42.5694 7.63428 42.1755C7.63428 41.9034 7.69157 41.6617 7.80615 41.4504C7.92432 41.2356 8.08903 41.053 8.30029 40.9026C8.51514 40.7486 8.764 40.6322 9.04688 40.5535C9.33333 40.4711 9.64665 40.4299 9.98682 40.4299C10.327 40.4299 10.6403 40.4711 10.9268 40.5535C11.2168 40.6322 11.4674 40.7486 11.6787 40.9026C11.8936 41.053 12.0601 41.2356 12.1782 41.4504C12.2964 41.6617 12.3555 41.9034 12.3555 42.1755ZM11.0557 42.0735C11.0557 41.8909 11.0109 41.7351 10.9214 41.6062C10.8319 41.4773 10.7065 41.3788 10.5454 41.3108C10.3843 41.2392 10.1981 41.2034 9.98682 41.2034C9.77555 41.2034 9.58936 41.2392 9.42822 41.3108C9.27067 41.3788 9.14714 41.4773 9.05762 41.6062C8.97168 41.7351 8.92871 41.8909 8.92871 42.0735C8.92871 42.2561 8.97168 42.4137 9.05762 42.5461C9.14714 42.675 9.27246 42.7753 9.43359 42.8469C9.59473 42.915 9.78271 42.949 9.99756 42.949C10.2088 42.949 10.3932 42.915 10.5508 42.8469C10.7119 42.7753 10.8354 42.675 10.9214 42.5461C11.0109 42.4137 11.0557 42.2561 11.0557 42.0735ZM12.1997 39.2966C12.1997 39.5401 12.1442 39.7621 12.0332 39.9626C11.9258 40.1596 11.7736 40.3315 11.5767 40.4783C11.3797 40.6215 11.147 40.7325 10.8784 40.8113C10.6134 40.8865 10.3198 40.9241 9.99756 40.9241C9.67529 40.9241 9.37988 40.8865 9.11133 40.8113C8.84277 40.7325 8.61003 40.6215 8.41309 40.4783C8.21615 40.3315 8.06217 40.1596 7.95117 39.9626C7.84375 39.7621 7.79004 39.5401 7.79004 39.2966C7.79004 38.9171 7.88314 38.5984 8.06934 38.3406C8.25911 38.0792 8.52051 37.8822 8.85352 37.7498C9.18652 37.6137 9.56429 37.5457 9.98682 37.5457C10.4165 37.5457 10.7961 37.6137 11.1255 37.7498C11.4585 37.8822 11.7199 38.0792 11.9097 38.3406C12.103 38.5984 12.1997 38.9171 12.1997 39.2966ZM10.9053 39.3611C10.9053 39.2035 10.8677 39.0657 10.7925 38.9475C10.7173 38.8258 10.6117 38.7327 10.4756 38.6682C10.3395 38.6038 10.1766 38.5715 9.98682 38.5715C9.80062 38.5715 9.63949 38.6038 9.50342 38.6682C9.37093 38.7327 9.26709 38.824 9.19189 38.9421C9.12028 39.0567 9.08447 39.1964 9.08447 39.3611C9.08447 39.5222 9.12028 39.6637 9.19189 39.7854C9.26709 39.9071 9.37272 40.002 9.50879 40.0701C9.64844 40.1381 9.81136 40.1721 9.99756 40.1721C10.1873 40.1721 10.3485 40.1381 10.481 40.0701C10.617 40.002 10.7209 39.9071 10.7925 39.7854C10.8677 39.6637 10.9053 39.5222 10.9053 39.3611ZM15.7563 37.6316V43.8889H14.4619V37.6316H15.7563ZM19.7686 37.6316L17.1045 40.7361L15.6006 42.2024L15.2998 40.9885L16.3633 39.6887L18.1572 37.6316H19.7686ZM18.3345 43.8889L16.2666 41.0046L17.2119 40.2043L19.8813 43.8889H18.3345Z" fill="#949494"/>
<path d="M37 40.3889H25" stroke="#655B96"/>
<path d="M12.3984 54.0759V54.7903L9.64307 60.3333H8.27881L11.0342 55.1072H7.46777V54.0759H12.3984ZM15.7563 54.0759V60.3333H14.4619V54.0759H15.7563ZM19.7686 54.0759L17.1045 57.1804L15.6006 58.6467L15.2998 57.4329L16.3633 56.1331L18.1572 54.0759H19.7686ZM18.3345 60.3333L16.2666 57.449L17.2119 56.6487L19.8813 60.3333H18.3345Z" fill="#949494"/>
<path d="M37 56.8333H25" stroke="#655B96"/>
<path d="M11.2275 70.4453H11.4102V71.498H11.3242C10.9411 71.498 10.6027 71.541 10.3091 71.627C10.019 71.7093 9.77376 71.8364 9.57324 72.0083C9.3763 72.1802 9.22591 72.3968 9.12207 72.6582C9.02181 72.9196 8.97168 73.2257 8.97168 73.5767V74.4951C8.97168 74.7171 8.99854 74.9123 9.05225 75.0806C9.10954 75.2489 9.18831 75.3903 9.28857 75.5049C9.38883 75.6159 9.507 75.7 9.64307 75.7573C9.78271 75.811 9.93311 75.8379 10.0942 75.8379C10.3127 75.8379 10.5024 75.7896 10.6636 75.6929C10.8247 75.5926 10.9482 75.4583 11.0342 75.29C11.1237 75.1182 11.1685 74.9284 11.1685 74.7207C11.1685 74.5059 11.1255 74.3179 11.0396 74.1567C10.9572 73.9956 10.8354 73.8703 10.6743 73.7808C10.5168 73.6877 10.3234 73.6411 10.0942 73.6411C9.86507 73.6411 9.65918 73.6859 9.47656 73.7754C9.29753 73.8613 9.1543 73.9723 9.04688 74.1084C8.94303 74.2445 8.88753 74.3877 8.88037 74.5381L8.53125 74.1567C8.54199 73.9276 8.62614 73.6966 8.78369 73.4639C8.94124 73.2275 9.16146 73.0288 9.44434 72.8677C9.72721 72.703 10.062 72.6206 10.4487 72.6206C10.8963 72.6206 11.2669 72.7137 11.5605 72.8999C11.8577 73.0861 12.0798 73.3385 12.2266 73.6572C12.377 73.9723 12.4521 74.3232 12.4521 74.71C12.4521 75.1182 12.3573 75.4852 12.1675 75.811C11.9777 76.1333 11.7091 76.3893 11.3618 76.5791C11.0145 76.7689 10.6009 76.8638 10.1211 76.8638C9.7487 76.8638 9.41211 76.8065 9.11133 76.6919C8.81055 76.5737 8.55273 76.4072 8.33789 76.1924C8.12663 75.974 7.9637 75.7126 7.84912 75.4082C7.73454 75.1003 7.67725 74.7547 7.67725 74.3716V73.9419C7.67725 73.394 7.75423 72.9053 7.9082 72.4756C8.06576 72.0423 8.29492 71.6753 8.5957 71.3745C8.90007 71.0701 9.27246 70.8392 9.71289 70.6816C10.1533 70.5241 10.6582 70.4453 11.2275 70.4453ZM15.7563 70.5205V76.7778H14.4619V70.5205H15.7563ZM19.7686 70.5205L17.1045 73.625L15.6006 75.0913L15.2998 73.8774L16.3633 72.5776L18.1572 70.5205H19.7686ZM18.3345 76.7778L16.2666 73.8936L17.2119 73.0933L19.8813 76.7778H18.3345Z" fill="#949494"/>
<path d="M37 73.2778H25" stroke="#655B96"/>
<path d="M8.9126 90.397L7.88135 90.1499L8.27881 86.9648H12.0923V88.0122H9.35303L9.16504 89.355C9.26172 89.312 9.40853 89.2619 9.60547 89.2046C9.80599 89.1473 10.028 89.1187 10.2715 89.1187C10.7191 89.1187 11.1022 89.201 11.4209 89.3657C11.7396 89.5269 11.9831 89.7614 12.1514 90.0693C12.3232 90.3737 12.4092 90.7425 12.4092 91.1758C12.4092 91.5518 12.325 91.9027 12.1567 92.2285C11.9884 92.5508 11.7306 92.8122 11.3833 93.0127C11.0396 93.2096 10.6009 93.3081 10.0674 93.3081C9.66992 93.3081 9.29574 93.2383 8.94482 93.0986C8.59391 92.959 8.30566 92.7549 8.08008 92.4863C7.85807 92.2178 7.73633 91.8901 7.71484 91.5034H8.99316C9.02181 91.772 9.13281 91.9689 9.32617 92.0942C9.51953 92.2196 9.7666 92.2822 10.0674 92.2822C10.318 92.2822 10.5203 92.2339 10.6743 92.1372C10.8283 92.0369 10.9393 91.9027 11.0073 91.7344C11.0789 91.5625 11.1147 91.3691 11.1147 91.1543C11.1147 90.9395 11.07 90.7497 10.9805 90.585C10.891 90.4167 10.7585 90.286 10.583 90.1929C10.4076 90.0998 10.1945 90.0532 9.94385 90.0532C9.65739 90.0532 9.44076 90.0908 9.29395 90.166C9.15072 90.2376 9.0236 90.3146 8.9126 90.397ZM15.7563 86.9648V93.2222H14.4619V86.9648H15.7563ZM19.7686 86.9648L17.1045 90.0693L15.6006 91.5356L15.2998 90.3218L16.3633 89.022L18.1572 86.9648H19.7686ZM18.3345 93.2222L16.2666 90.3379L17.2119 89.5376L19.8813 93.2222H18.3345Z" fill="#949494"/>
<path d="M37 89.7222H25" stroke="#655B96"/>
<path d="M12.5649 107.287V108.319H7.49463L7.44092 107.508L10.4165 103.409H11.4316L10.3145 105.23L8.74072 107.287H12.5649ZM11.7324 103.409V109.667H10.438V103.409H11.7324ZM15.7563 103.409V109.667H14.4619V103.409H15.7563ZM19.7686 103.409L17.1045 106.514L15.6006 107.98L15.2998 106.766L16.3633 105.467L18.1572 103.409H19.7686ZM18.3345 109.667L16.2666 106.782L17.2119 105.982L19.8813 109.667H18.3345Z" fill="#949494"/>
<path d="M37 106.167H25" stroke="#655B96"/>
<path d="M9.1167 122.464H9.79346C10.0477 122.464 10.2572 122.428 10.4219 122.357C10.5866 122.281 10.7083 122.179 10.7871 122.051C10.8695 121.922 10.9106 121.773 10.9106 121.605C10.9106 121.451 10.8748 121.313 10.8032 121.191C10.7352 121.069 10.626 120.973 10.4756 120.901C10.3288 120.83 10.1354 120.794 9.89551 120.794C9.70215 120.794 9.52848 120.822 9.37451 120.88C9.22412 120.937 9.10417 121.019 9.01465 121.127C8.92513 121.234 8.88037 121.363 8.88037 121.513H7.58057C7.58057 121.152 7.68262 120.842 7.88672 120.584C8.0944 120.323 8.37012 120.122 8.71387 119.983C9.0612 119.839 9.44613 119.768 9.86865 119.768C10.216 119.768 10.5329 119.805 10.8193 119.881C11.1058 119.956 11.3529 120.069 11.5605 120.219C11.7718 120.369 11.9329 120.556 12.0439 120.778C12.1549 121 12.2104 121.256 12.2104 121.546C12.2104 121.757 12.1621 121.956 12.0654 122.142C11.9688 122.324 11.8255 122.487 11.6357 122.631C11.446 122.774 11.215 122.887 10.9429 122.969C10.6707 123.048 10.3628 123.087 10.019 123.087H9.1167V122.464ZM9.1167 123.383V122.765H10.019C10.4093 122.765 10.7495 122.801 11.0396 122.872C11.3296 122.944 11.5695 123.048 11.7593 123.184C11.9491 123.32 12.0905 123.488 12.1836 123.689C12.2767 123.886 12.3232 124.109 12.3232 124.36C12.3232 124.654 12.2624 124.915 12.1406 125.144C12.0189 125.37 11.8452 125.561 11.6196 125.719C11.3976 125.877 11.138 125.997 10.8408 126.079C10.5436 126.158 10.2214 126.197 9.87402 126.197C9.57324 126.197 9.28141 126.161 8.99854 126.09C8.71924 126.018 8.46501 125.907 8.23584 125.757C8.01025 125.603 7.82943 125.409 7.69336 125.177C7.56087 124.944 7.49463 124.666 7.49463 124.344H8.79443C8.79443 124.502 8.84098 124.643 8.93408 124.768C9.02718 124.894 9.15788 124.992 9.32617 125.064C9.49447 125.135 9.6932 125.171 9.92236 125.171C10.1623 125.171 10.3646 125.135 10.5293 125.064C10.694 124.989 10.8175 124.886 10.8999 124.758C10.9823 124.625 11.0234 124.471 11.0234 124.296C11.0234 124.135 10.9948 123.997 10.9375 123.882C10.8802 123.764 10.7979 123.669 10.6904 123.597C10.5866 123.522 10.4577 123.469 10.3037 123.436C10.1533 123.4 9.98324 123.383 9.79346 123.383H9.1167ZM15.7563 119.854V126.111H14.4619V119.854H15.7563ZM19.7686 119.854L17.1045 122.958L15.6006 124.425L15.2998 123.211L16.3633 121.911L18.1572 119.854H19.7686ZM18.3345 126.111L16.2666 123.227L17.2119 122.427L19.8813 126.111H18.3345Z" fill="#949494"/>
<path d="M37 122.611H25" stroke="#655B96"/>
<path d="M12.4414 141.53V142.556H7.6665V141.68L9.94922 139.542C10.1855 139.324 10.3717 139.129 10.5078 138.957C10.6475 138.782 10.7477 138.624 10.8086 138.484C10.8695 138.341 10.8999 138.212 10.8999 138.098C10.8999 137.847 10.8175 137.641 10.6528 137.48C10.4881 137.319 10.2518 137.238 9.94385 137.238C9.68962 137.238 9.47835 137.285 9.31006 137.378C9.14535 137.467 9.0236 137.591 8.94482 137.749C8.86605 137.906 8.82666 138.085 8.82666 138.286H7.52686C7.52686 137.906 7.62174 137.559 7.81152 137.244C8.0013 136.929 8.27344 136.678 8.62793 136.492C8.986 136.306 9.4139 136.212 9.91162 136.212C10.3914 136.212 10.8014 136.288 11.1416 136.438C11.4854 136.588 11.7467 136.805 11.9258 137.088C12.1048 137.367 12.1943 137.698 12.1943 138.082C12.1943 138.293 12.1585 138.493 12.0869 138.683C12.0189 138.873 11.9186 139.057 11.7861 139.236C11.6536 139.415 11.4925 139.598 11.3027 139.784C11.113 139.97 10.8981 140.169 10.6582 140.38L9.32617 141.53H12.4414ZM15.7563 136.298V142.556H14.4619V136.298H15.7563ZM19.7686 136.298L17.1045 139.403L15.6006 140.869L15.2998 139.655L16.3633 138.355L18.1572 136.298H19.7686ZM18.3345 142.556L16.2666 139.671L17.2119 138.871L19.8813 142.556H18.3345Z" fill="#949494"/>
<path d="M37 139.056H25" stroke="#655B96"/>
<path d="M10.9751 152.743V159H9.68066V154.247L7.9834 154.692V153.672L10.8301 152.743H10.9751ZM15.7563 152.743V159H14.4619V152.743H15.7563ZM19.7686 152.743L17.1045 155.847L15.6006 157.313L15.2998 156.1L16.3633 154.8L18.1572 152.743H19.7686ZM18.3345 159L16.2666 156.116L17.2119 155.315L19.8813 159H18.3345Z" fill="#949494"/>
<path d="M37 155.5H25" stroke="#655B96"/>
<path d="M37 1V172" stroke="#655B96"/>
<path d="M37 130.702L109.545 128.053C110.763 128.009 111.981 128.076 113.186 128.253L177.382 137.698C182.731 138.485 188.171 137.073 192.462 133.783L219.772 112.843C221.862 111.241 224.247 110.067 226.792 109.389L251.181 102.891C256.855 101.379 262.906 102.437 267.73 105.784L320.161 142.157C328.376 147.856 339.538 146.612 346.298 139.245L401.409 79.177C406.056 74.1128 412.977 71.789 419.738 73.0233L472.399 82.6371C479.154 83.8701 486.068 81.5524 490.715 76.4979L551.975 9.86193C555.59 5.92883 560.629 3.60587 565.968 3.41093L632 1" stroke="#CE2A96"/>
<path d="M37 141.349L106.102 136.603C109.558 136.365 113.016 137.03 116.139 138.531L170.37 164.605C179.23 168.865 189.872 166.055 195.473 157.976L221.614 120.27C222.493 119.002 223.223 117.635 223.788 116.199L247.166 56.7883C252.863 42.3082 272.187 39.5953 281.652 51.9468L317.1 98.207C325.551 109.236 342.396 108.499 349.851 96.7745L396.292 23.7448C402.895 13.3618 417.218 11.3467 426.429 19.5049L472.12 59.9724C478.727 65.8243 488.389 66.6533 495.897 62.0124L553.416 26.4557C556.18 24.7468 559.319 23.7374 562.562 23.5147L632 18.7453" stroke="#6C60FF"/>
<path d="M37 172H632" stroke="#655B96"/>
<path d="M47.5 172V182" stroke="#655B96"/>
<path d="M40.7261 195.029V190.743H42.0259V195.029C42.0259 195.462 41.9292 195.833 41.7358 196.141C41.5425 196.445 41.2811 196.68 40.9517 196.844C40.6258 197.005 40.2588 197.086 39.8506 197.086C39.403 197.086 39.0073 197.016 38.6636 196.876C38.3198 196.733 38.0495 196.517 37.8525 196.227C37.6592 195.933 37.5625 195.561 37.5625 195.109H38.8623C38.8623 195.331 38.9017 195.514 38.9805 195.657C39.0592 195.797 39.172 195.899 39.3188 195.963C39.4692 196.028 39.6465 196.06 39.8506 196.06C40.0332 196.06 40.189 196.021 40.3179 195.942C40.4504 195.863 40.5506 195.749 40.6187 195.598C40.6903 195.444 40.7261 195.254 40.7261 195.029ZM46.8662 192.026L44.9863 197H43.6758L46.1948 190.743H47.0649L46.8662 192.026ZM48.6011 197L46.7104 192.016L46.5117 190.743H47.3979L49.9116 197H48.6011ZM48.5205 194.68V195.652H44.9434V194.68H48.5205ZM57.0132 190.743V197H55.7134L52.8882 192.687V197H51.5938V190.743H52.8882L55.7134 195.056V190.743H57.0132Z" fill="#949494"/>
<path d="M98.7734 172V182" stroke="#655B96"/>
<path d="M91.4302 190.743V197H90.1357V190.743H91.4302ZM94.1426 193.401V194.433H91.0811V193.401H94.1426ZM94.4917 190.743V191.774H91.0811V190.743H94.4917ZM100.804 195.974V197H97.2212V195.974H100.804ZM97.6294 190.743V197H96.335V190.743H97.6294ZM100.342 193.251V194.277H97.2212V193.251H100.342ZM100.793 190.743V191.774H97.2212V190.743H100.793ZM105.252 194.266H103.522L103.512 193.375H105.053C105.286 193.375 105.483 193.344 105.644 193.283C105.805 193.222 105.927 193.135 106.009 193.02C106.095 192.902 106.138 192.759 106.138 192.59C106.138 192.401 106.097 192.245 106.015 192.123C105.932 192.001 105.809 191.914 105.644 191.86C105.479 191.803 105.275 191.774 105.032 191.774H103.958V197H102.663V190.743H104.962C105.349 190.743 105.692 190.778 105.993 190.85C106.298 190.918 106.557 191.022 106.772 191.162C106.987 191.301 107.15 191.48 107.261 191.699C107.375 191.914 107.433 192.168 107.433 192.461C107.433 192.716 107.368 192.952 107.239 193.17C107.114 193.389 106.921 193.566 106.659 193.702C106.398 193.838 106.059 193.913 105.644 193.928L105.252 194.266ZM105.193 197H103.157L103.684 195.974H105.193C105.444 195.974 105.649 195.938 105.811 195.867C105.975 195.795 106.097 195.698 106.176 195.577C106.255 195.451 106.294 195.308 106.294 195.147C106.294 194.968 106.258 194.814 106.187 194.685C106.118 194.553 106.007 194.451 105.854 194.379C105.7 194.304 105.499 194.266 105.252 194.266H103.931L103.936 193.375H105.612L105.907 193.724C106.305 193.716 106.627 193.786 106.874 193.933C107.121 194.076 107.302 194.263 107.417 194.492C107.535 194.721 107.594 194.959 107.594 195.206C107.594 195.51 107.54 195.775 107.433 196.001C107.325 196.223 107.169 196.409 106.965 196.56C106.761 196.706 106.511 196.817 106.213 196.893C105.916 196.964 105.576 197 105.193 197Z" fill="#949494"/>
<path d="M151.045 172V182" stroke="#655B96"/>
<path d="M140.93 190.743H142.047L143.857 195.303L145.662 190.743H146.779L144.298 197H143.412L140.93 190.743ZM140.355 190.743H141.451L141.65 195.281V197H140.355V190.743ZM146.264 190.743H147.365V197H146.07V195.281L146.264 190.743ZM152.237 192.026L150.357 197H149.047L151.566 190.743H152.436L152.237 192.026ZM153.972 197L152.082 192.016L151.883 190.743H152.769L155.283 197H153.972ZM153.892 194.68V195.652H150.314V194.68H153.892ZM156.959 190.743H159.425C159.808 190.743 160.152 190.784 160.456 190.866C160.76 190.949 161.018 191.07 161.229 191.231C161.444 191.389 161.607 191.586 161.718 191.822C161.833 192.055 161.89 192.325 161.89 192.633C161.89 192.973 161.829 193.265 161.708 193.509C161.586 193.749 161.414 193.947 161.192 194.105C160.97 194.263 160.708 194.39 160.408 194.486L159.994 194.712H157.819L157.808 193.681H159.441C159.699 193.681 159.912 193.641 160.08 193.562C160.248 193.484 160.375 193.375 160.461 193.235C160.547 193.092 160.59 192.927 160.59 192.741C160.59 192.544 160.547 192.374 160.461 192.23C160.379 192.084 160.25 191.971 160.075 191.892C159.903 191.813 159.686 191.774 159.425 191.774H158.259V197H156.959V190.743ZM160.751 197L159.205 194.229L160.574 194.218L162.148 196.941V197H160.751Z" fill="#949494"/>
<path d="M204.318 172V182" stroke="#655B96"/>
<path d="M197.33 192.026L195.45 197H194.139L196.658 190.743H197.528L197.33 192.026ZM199.064 197L197.174 192.016L196.975 190.743H197.861L200.375 197H199.064ZM198.984 194.68V195.652H195.407V194.68H198.984ZM204.646 194.792H202.917V193.761H204.646C204.925 193.761 205.153 193.72 205.328 193.638C205.507 193.555 205.638 193.444 205.72 193.305C205.806 193.161 205.849 193 205.849 192.821C205.849 192.635 205.806 192.463 205.72 192.306C205.638 192.148 205.507 192.021 205.328 191.924C205.153 191.824 204.925 191.774 204.646 191.774H203.352V197H202.057V190.743H204.646C205.172 190.743 205.622 190.832 205.994 191.011C206.367 191.19 206.649 191.436 206.843 191.747C207.04 192.055 207.138 192.41 207.138 192.811C207.138 193.111 207.083 193.383 206.972 193.627C206.861 193.87 206.698 194.08 206.483 194.255C206.268 194.427 206.007 194.56 205.699 194.653C205.391 194.746 205.04 194.792 204.646 194.792ZM209.132 190.743H211.597C211.98 190.743 212.324 190.784 212.628 190.866C212.933 190.949 213.191 191.07 213.402 191.231C213.617 191.389 213.78 191.586 213.891 191.822C214.005 192.055 214.062 192.325 214.062 192.633C214.062 192.973 214.002 193.265 213.88 193.509C213.758 193.749 213.586 193.947 213.364 194.105C213.142 194.263 212.881 194.39 212.58 194.486L212.167 194.712H209.991L209.98 193.681H211.613C211.871 193.681 212.084 193.641 212.252 193.562C212.421 193.484 212.548 193.375 212.634 193.235C212.72 193.092 212.763 192.927 212.763 192.741C212.763 192.544 212.72 192.374 212.634 192.23C212.551 192.084 212.423 191.971 212.247 191.892C212.075 191.813 211.859 191.774 211.597 191.774H210.432V197H209.132V190.743ZM212.924 197L211.377 194.229L212.747 194.218L214.32 196.941V197H212.924Z" fill="#949494"/>
<path d="M257.592 172V182" stroke="#655B96"/>
<path d="M247.756 190.743H248.874L250.684 195.303L252.488 190.743H253.605L251.124 197H250.238L247.756 190.743ZM247.182 190.743H248.277L248.476 195.281V197H247.182V190.743ZM253.09 190.743H254.191V197H252.896V195.281L253.09 190.743ZM259.063 192.026L257.184 197H255.873L258.392 190.743H259.262L259.063 192.026ZM260.798 197L258.908 192.016L258.709 190.743H259.595L262.109 197H260.798ZM260.718 194.68V195.652H257.141V194.68H260.718ZM265.402 194.245L267.186 190.743H268.604L266.289 194.916H265.558L265.402 194.245ZM264.253 190.743L266.047 194.277L265.87 194.916H265.15L262.835 190.743H264.253ZM266.348 194.067V197H265.053V194.067H266.348Z" fill="#949494"/>
<path d="M310.863 172V182" stroke="#655B96"/>
<path d="M304.138 195.029V190.743H305.438V195.029C305.438 195.462 305.341 195.833 305.147 196.141C304.954 196.445 304.693 196.68 304.363 196.844C304.037 197.005 303.67 197.086 303.262 197.086C302.815 197.086 302.419 197.016 302.075 196.876C301.731 196.733 301.461 196.517 301.264 196.227C301.071 195.933 300.974 195.561 300.974 195.109H302.274C302.274 195.331 302.313 195.514 302.392 195.657C302.471 195.797 302.584 195.899 302.73 195.963C302.881 196.028 303.058 196.06 303.262 196.06C303.445 196.06 303.601 196.021 303.729 195.942C303.862 195.863 303.962 195.749 304.03 195.598C304.102 195.444 304.138 195.254 304.138 195.029ZM311.417 190.743H312.716V194.868C312.716 195.347 312.605 195.754 312.383 196.087C312.161 196.416 311.859 196.665 311.476 196.833C311.092 197.002 310.656 197.086 310.165 197.086C309.667 197.086 309.225 197.002 308.838 196.833C308.455 196.665 308.154 196.416 307.936 196.087C307.718 195.754 307.608 195.347 307.608 194.868V190.743H308.897V194.868C308.897 195.143 308.948 195.371 309.048 195.55C309.152 195.725 309.299 195.854 309.488 195.937C309.678 196.019 309.904 196.06 310.165 196.06C310.426 196.06 310.65 196.019 310.836 195.937C311.023 195.854 311.166 195.725 311.266 195.55C311.366 195.371 311.417 195.143 311.417 194.868V190.743ZM320.328 190.743V197H319.028L316.203 192.687V197H314.909V190.743H316.203L319.028 195.056V190.743H320.328Z" fill="#949494"/>
<path d="M362.137 172V182" stroke="#655B96"/>
<path d="M356.195 195.029V190.743H357.495V195.029C357.495 195.462 357.398 195.833 357.205 196.141C357.012 196.445 356.75 196.68 356.421 196.844C356.095 197.005 355.728 197.086 355.32 197.086C354.872 197.086 354.477 197.016 354.133 196.876C353.789 196.733 353.519 196.517 353.322 196.227C353.128 195.933 353.032 195.561 353.032 195.109H354.332C354.332 195.331 354.371 195.514 354.45 195.657C354.528 195.797 354.641 195.899 354.788 195.963C354.938 196.028 355.116 196.06 355.32 196.06C355.502 196.06 355.658 196.021 355.787 195.942C355.92 195.863 356.02 195.749 356.088 195.598C356.16 195.444 356.195 195.254 356.195 195.029ZM363.474 190.743H364.774V194.868C364.774 195.347 364.663 195.754 364.441 196.087C364.219 196.416 363.916 196.665 363.533 196.833C363.15 197.002 362.713 197.086 362.223 197.086C361.725 197.086 361.283 197.002 360.896 196.833C360.513 196.665 360.212 196.416 359.994 196.087C359.775 195.754 359.666 195.347 359.666 194.868V190.743H360.955V194.868C360.955 195.143 361.005 195.371 361.105 195.55C361.209 195.725 361.356 195.854 361.546 195.937C361.736 196.019 361.961 196.06 362.223 196.06C362.484 196.06 362.708 196.019 362.894 195.937C363.08 195.854 363.223 195.725 363.324 195.55C363.424 195.371 363.474 195.143 363.474 194.868V190.743ZM371.242 195.974V197H367.853V195.974H371.242ZM368.261 190.743V197H366.966V190.743H368.261Z" fill="#949494"/>
<path d="M413.408 172V182" stroke="#655B96"/>
<path d="M406.215 192.026L404.335 197H403.025L405.544 190.743H406.414L406.215 192.026ZM407.95 197L406.06 192.016L405.861 190.743H406.747L409.261 197H407.95ZM407.87 194.68V195.652H404.292V194.68H407.87ZM414.574 190.743H415.874V194.868C415.874 195.347 415.763 195.754 415.541 196.087C415.319 196.416 415.016 196.665 414.633 196.833C414.25 197.002 413.813 197.086 413.322 197.086C412.825 197.086 412.382 197.002 411.996 196.833C411.612 196.665 411.312 196.416 411.093 196.087C410.875 195.754 410.766 195.347 410.766 194.868V190.743H412.055V194.868C412.055 195.143 412.105 195.371 412.205 195.55C412.309 195.725 412.456 195.854 412.646 195.937C412.835 196.019 413.061 196.06 413.322 196.06C413.584 196.06 413.807 196.019 413.994 195.937C414.18 195.854 414.323 195.725 414.423 195.55C414.524 195.371 414.574 195.143 414.574 194.868V190.743ZM423.335 193.724V196.216C423.231 196.334 423.074 196.461 422.862 196.597C422.651 196.733 422.375 196.85 422.035 196.946C421.695 197.039 421.278 197.086 420.784 197.086C420.354 197.086 419.962 197.02 419.607 196.887C419.257 196.751 418.952 196.554 418.694 196.296C418.437 196.039 418.238 195.723 418.098 195.351C417.962 194.975 417.894 194.547 417.894 194.067V193.675C417.894 193.195 417.96 192.769 418.093 192.397C418.225 192.021 418.413 191.704 418.657 191.446C418.904 191.188 419.199 190.993 419.543 190.861C419.887 190.725 420.27 190.657 420.692 190.657C421.265 190.657 421.736 190.746 422.105 190.925C422.477 191.101 422.762 191.344 422.959 191.656C423.156 191.967 423.279 192.325 423.33 192.73H422.067C422.032 192.515 421.964 192.331 421.863 192.177C421.763 192.019 421.62 191.897 421.434 191.812C421.251 191.726 421.015 191.683 420.725 191.683C420.481 191.683 420.263 191.726 420.069 191.812C419.88 191.894 419.718 192.019 419.586 192.188C419.457 192.356 419.359 192.563 419.291 192.811C419.226 193.054 419.194 193.339 419.194 193.665V194.067C419.194 194.393 419.23 194.681 419.301 194.932C419.376 195.179 419.484 195.387 419.624 195.555C419.767 195.723 419.94 195.851 420.145 195.937C420.352 196.019 420.589 196.06 420.854 196.06C421.208 196.06 421.475 196.024 421.654 195.953C421.833 195.877 421.96 195.808 422.035 195.743V194.653H420.682V193.724H423.335Z" fill="#949494"/>
<path d="M465.182 172V182" stroke="#655B96"/>
<path d="M459.734 195.362C459.734 195.244 459.713 195.138 459.67 195.045C459.631 194.952 459.561 194.868 459.46 194.792C459.364 194.714 459.229 194.64 459.058 194.572C458.889 194.504 458.676 194.44 458.418 194.379C458.046 194.289 457.717 194.189 457.43 194.078C457.147 193.964 456.909 193.831 456.716 193.681C456.522 193.53 456.376 193.353 456.275 193.149C456.179 192.945 456.13 192.707 456.13 192.435C456.13 192.173 456.188 191.935 456.302 191.72C456.417 191.502 456.58 191.314 456.791 191.156C457.002 190.995 457.253 190.872 457.543 190.786C457.833 190.7 458.152 190.657 458.499 190.657C459.004 190.657 459.443 190.739 459.815 190.904C460.187 191.069 460.476 191.296 460.68 191.586C460.887 191.872 460.991 192.205 460.991 192.585H459.697C459.697 192.406 459.65 192.245 459.557 192.102C459.468 191.958 459.335 191.844 459.16 191.758C458.984 191.672 458.764 191.629 458.499 191.629C458.245 191.629 458.035 191.667 457.871 191.742C457.706 191.813 457.582 191.908 457.5 192.026C457.421 192.141 457.382 192.266 457.382 192.402C457.382 192.51 457.405 192.606 457.452 192.692C457.502 192.778 457.581 192.857 457.688 192.929C457.795 193 457.935 193.068 458.107 193.133C458.279 193.197 458.488 193.26 458.735 193.321C459.104 193.407 459.43 193.509 459.713 193.627C459.996 193.745 460.232 193.885 460.422 194.046C460.612 194.203 460.753 194.39 460.846 194.604C460.943 194.816 460.991 195.057 460.991 195.33C460.991 195.605 460.934 195.852 460.819 196.071C460.705 196.286 460.54 196.468 460.325 196.619C460.114 196.769 459.86 196.885 459.562 196.968C459.265 197.047 458.934 197.086 458.569 197.086C458.247 197.086 457.926 197.047 457.607 196.968C457.292 196.889 457.008 196.767 456.753 196.603C456.499 196.438 456.295 196.228 456.141 195.974C455.991 195.716 455.916 195.414 455.916 195.066H457.215C457.215 195.253 457.248 195.414 457.312 195.55C457.38 195.682 457.475 195.792 457.597 195.877C457.722 195.96 457.871 196.021 458.042 196.06C458.214 196.099 458.404 196.119 458.612 196.119C458.873 196.119 459.086 196.085 459.251 196.017C459.419 195.945 459.541 195.852 459.616 195.738C459.695 195.623 459.734 195.498 459.734 195.362ZM467.48 195.974V197H463.898V195.974H467.48ZM464.306 190.743V197H463.012V190.743H464.306ZM467.019 193.251V194.277H463.898V193.251H467.019ZM467.47 190.743V191.774H463.898V190.743H467.47ZM471.929 194.792H470.199V193.761H471.929C472.208 193.761 472.435 193.72 472.611 193.638C472.79 193.555 472.921 193.444 473.003 193.305C473.089 193.161 473.132 193 473.132 192.821C473.132 192.635 473.089 192.463 473.003 192.306C472.921 192.148 472.79 192.021 472.611 191.924C472.435 191.824 472.208 191.774 471.929 191.774H470.634V197H469.34V190.743H471.929C472.455 190.743 472.904 190.832 473.277 191.011C473.649 191.19 473.932 191.436 474.125 191.747C474.322 192.055 474.421 192.41 474.421 192.811C474.421 193.111 474.365 193.383 474.254 193.627C474.143 193.87 473.98 194.08 473.766 194.255C473.551 194.427 473.289 194.56 472.981 194.653C472.674 194.746 472.323 194.792 471.929 194.792Z" fill="#949494"/>
<path d="M516.955 172V182" stroke="#655B96"/>
<path d="M512.77 193.724V194.024C512.77 194.501 512.702 194.927 512.566 195.303C512.43 195.679 512.236 196.001 511.986 196.27C511.739 196.535 511.442 196.737 511.094 196.876C510.747 197.016 510.364 197.086 509.945 197.086C509.526 197.086 509.143 197.016 508.795 196.876C508.448 196.737 508.147 196.535 507.893 196.27C507.639 196.001 507.442 195.679 507.302 195.303C507.166 194.927 507.098 194.501 507.098 194.024V193.724C507.098 193.247 507.166 192.821 507.302 192.445C507.442 192.069 507.637 191.747 507.888 191.479C508.138 191.21 508.437 191.006 508.785 190.866C509.132 190.727 509.515 190.657 509.934 190.657C510.357 190.657 510.74 190.727 511.083 190.866C511.431 191.006 511.73 191.21 511.98 191.479C512.235 191.747 512.43 192.069 512.566 192.445C512.702 192.821 512.77 193.247 512.77 193.724ZM511.476 194.024V193.713C511.476 193.387 511.442 193.099 511.374 192.848C511.306 192.597 511.203 192.386 511.067 192.214C510.935 192.042 510.774 191.912 510.584 191.822C510.394 191.733 510.178 191.688 509.934 191.688C509.694 191.688 509.478 191.733 509.284 191.822C509.094 191.912 508.933 192.042 508.801 192.214C508.672 192.386 508.572 192.597 508.5 192.848C508.432 193.099 508.398 193.387 508.398 193.713V194.024C508.398 194.347 508.432 194.635 508.5 194.889C508.572 195.14 508.674 195.353 508.806 195.528C508.942 195.7 509.105 195.833 509.295 195.926C509.488 196.015 509.705 196.06 509.945 196.06C510.188 196.06 510.403 196.015 510.589 195.926C510.779 195.833 510.94 195.7 511.073 195.528C511.205 195.353 511.306 195.14 511.374 194.889C511.442 194.635 511.476 194.347 511.476 194.024ZM518.754 194.916H520.054C520.022 195.342 519.897 195.718 519.678 196.044C519.463 196.37 519.163 196.626 518.776 196.812C518.389 196.995 517.922 197.086 517.374 197.086C516.948 197.086 516.565 197.016 516.225 196.876C515.888 196.737 515.6 196.538 515.36 196.28C515.124 196.019 514.941 195.704 514.812 195.335C514.687 194.963 514.624 194.545 514.624 194.083V193.665C514.624 193.203 514.688 192.787 514.817 192.418C514.946 192.046 515.132 191.729 515.376 191.468C515.619 191.203 515.91 191.002 516.246 190.866C516.586 190.727 516.968 190.657 517.39 190.657C517.945 190.657 518.412 190.752 518.792 190.941C519.172 191.128 519.467 191.387 519.678 191.72C519.889 192.053 520.017 192.435 520.06 192.864H518.765C518.744 192.632 518.685 192.427 518.588 192.252C518.491 192.073 518.346 191.933 518.153 191.833C517.959 191.733 517.705 191.683 517.39 191.683C517.147 191.683 516.934 191.726 516.751 191.812C516.568 191.894 516.414 192.019 516.289 192.188C516.167 192.356 516.074 192.563 516.01 192.811C515.949 193.054 515.918 193.337 515.918 193.659V194.083C515.918 194.399 515.945 194.68 515.999 194.927C516.056 195.17 516.144 195.376 516.262 195.544C516.38 195.713 516.531 195.842 516.713 195.931C516.9 196.017 517.12 196.06 517.374 196.06C517.678 196.06 517.927 196.019 518.121 195.937C518.314 195.851 518.463 195.722 518.566 195.55C518.67 195.378 518.733 195.167 518.754 194.916ZM524.938 190.743V197H523.643V190.743H524.938ZM527.021 190.743V191.774H521.586V190.743H527.021Z" fill="#949494"/>
<path d="M569.727 172V182" stroke="#655B96"/>
<path d="M565.144 190.743V197H563.844L561.019 192.687V197H559.725V190.743H561.019L563.844 195.056V190.743H565.144ZM572.863 193.724V194.024C572.863 194.501 572.795 194.927 572.659 195.303C572.523 195.679 572.33 196.001 572.079 196.27C571.832 196.535 571.535 196.737 571.188 196.876C570.84 197.016 570.457 197.086 570.038 197.086C569.619 197.086 569.236 197.016 568.889 196.876C568.541 196.737 568.241 196.535 567.986 196.27C567.732 196.001 567.535 195.679 567.396 195.303C567.259 194.927 567.191 194.501 567.191 194.024V193.724C567.191 193.247 567.259 192.821 567.396 192.445C567.535 192.069 567.73 191.747 567.981 191.479C568.232 191.21 568.531 191.006 568.878 190.866C569.225 190.727 569.608 190.657 570.027 190.657C570.45 190.657 570.833 190.727 571.177 190.866C571.524 191.006 571.823 191.21 572.074 191.479C572.328 191.747 572.523 192.069 572.659 192.445C572.795 192.821 572.863 193.247 572.863 193.724ZM571.569 194.024V193.713C571.569 193.387 571.535 193.099 571.467 192.848C571.399 192.597 571.297 192.386 571.161 192.214C571.028 192.042 570.867 191.912 570.677 191.822C570.487 191.733 570.271 191.688 570.027 191.688C569.787 191.688 569.571 191.733 569.377 191.822C569.188 191.912 569.027 192.042 568.894 192.214C568.765 192.386 568.665 192.597 568.593 192.848C568.525 193.099 568.491 193.387 568.491 193.713V194.024C568.491 194.347 568.525 194.635 568.593 194.889C568.665 195.14 568.767 195.353 568.899 195.528C569.035 195.7 569.198 195.833 569.388 195.926C569.582 196.015 569.798 196.06 570.038 196.06C570.282 196.06 570.496 196.015 570.683 195.926C570.872 195.833 571.034 195.7 571.166 195.528C571.299 195.353 571.399 195.14 571.467 194.889C571.535 194.635 571.569 194.347 571.569 194.024ZM577.371 195.378L578.944 190.743H580.314L577.951 197H576.989L577.371 195.378ZM575.625 190.743L577.183 195.367L577.575 197H576.608L574.25 190.743H575.625Z" fill="#949494"/>
<path d="M622 172V182" stroke="#655B96"/>
<path d="M614.823 197H613.362L613.373 195.974H614.823C615.235 195.974 615.572 195.899 615.833 195.749C616.094 195.595 616.286 195.373 616.408 195.083C616.533 194.792 616.596 194.44 616.596 194.024V193.713C616.596 193.401 616.56 193.126 616.488 192.886C616.42 192.642 616.315 192.438 616.171 192.273C616.028 192.109 615.846 191.985 615.624 191.903C615.405 191.817 615.146 191.774 614.845 191.774H613.335V190.743H614.845C615.292 190.743 615.702 190.814 616.075 190.958C616.451 191.101 616.773 191.305 617.042 191.57C617.314 191.831 617.523 192.145 617.67 192.51C617.82 192.875 617.896 193.28 617.896 193.724V194.024C617.896 194.615 617.765 195.134 617.503 195.582C617.246 196.03 616.886 196.379 616.424 196.629C615.965 196.876 615.432 197 614.823 197ZM614.093 190.743V197H612.798V190.743H614.093ZM624.422 195.974V197H620.84V195.974H624.422ZM621.248 190.743V197H619.954V190.743H621.248ZM623.96 193.251V194.277H620.84V193.251H623.96ZM624.412 190.743V191.774H620.84V190.743H624.412ZM630.203 194.916H631.502C631.47 195.342 631.345 195.718 631.126 196.044C630.912 196.37 630.611 196.626 630.224 196.812C629.837 196.995 629.37 197.086 628.822 197.086C628.396 197.086 628.013 197.016 627.673 196.876C627.336 196.737 627.048 196.538 626.808 196.28C626.572 196.019 626.389 195.704 626.26 195.335C626.135 194.963 626.072 194.545 626.072 194.083V193.665C626.072 193.203 626.137 192.787 626.266 192.418C626.395 192.046 626.581 191.729 626.824 191.468C627.068 191.203 627.358 191.002 627.694 190.866C628.035 190.727 628.416 190.657 628.838 190.657C629.393 190.657 629.861 190.752 630.24 190.941C630.62 191.128 630.915 191.387 631.126 191.72C631.338 192.053 631.465 192.435 631.508 192.864H630.213C630.192 192.632 630.133 192.427 630.036 192.252C629.939 192.073 629.794 191.933 629.601 191.833C629.408 191.733 629.153 191.683 628.838 191.683C628.595 191.683 628.382 191.726 628.199 191.812C628.017 191.894 627.863 192.019 627.737 192.188C627.616 192.356 627.522 192.563 627.458 192.811C627.397 193.054 627.367 193.337 627.367 193.659V194.083C627.367 194.399 627.394 194.68 627.447 194.927C627.505 195.17 627.592 195.376 627.71 195.544C627.829 195.713 627.979 195.842 628.162 195.931C628.348 196.017 628.568 196.06 628.822 196.06C629.127 196.06 629.375 196.019 629.569 195.937C629.762 195.851 629.911 195.722 630.015 195.55C630.118 195.378 630.181 195.167 630.203 194.916Z" fill="#949494"/>
</svg>
