<svg width="227" height="231" viewBox="0 0 227 231" fill="none" xmlns="http://www.w3.org/2000/svg">
<path opacity="0.4" d="M53.7798 179.183C67.6625 190.438 84.9711 197.683 103.517 200.002C122.062 202.321 141.012 199.61 157.97 192.211C174.927 184.813 189.131 173.059 198.785 158.437C208.439 143.814 213.109 126.98 212.205 110.062L182.58 111.645C183.201 123.27 179.992 134.838 173.358 144.886C166.725 154.934 156.964 163.01 145.312 168.094C133.659 173.178 120.638 175.041 107.894 173.448C95.1503 171.854 83.2566 166.876 73.717 159.142L53.7798 179.183Z" fill="#00A3FF" fill-opacity="0.5"/>
<path d="M120.996 11.1978C100.717 9.76204 80.4656 14.9223 63.2561 25.9103C46.0467 36.8983 32.7996 53.1266 25.487 72.1795C18.1743 91.2324 17.187 112.091 22.672 131.65C28.1571 151.21 39.8211 168.424 55.928 180.731L72.8322 158.668C61.4465 149.968 53.2014 137.8 49.3241 123.973C45.4468 110.147 46.1447 95.4022 51.3139 81.934C56.4831 68.4658 65.8473 56.9942 78.0124 49.2269C90.1775 41.4596 104.493 37.8119 118.828 38.8268L120.996 11.1978Z" fill="#005DFF"/>
<g filter="url(#filter0_d_124_2208)">
<path d="M216.377 115.002C216.608 100.729 214.098 86.6239 208.991 73.493C203.884 60.362 196.279 48.4622 186.611 38.473C176.943 28.4837 165.401 20.6006 152.644 15.2739C139.887 9.94706 126.164 7.28086 112.26 7.42748L111.629 46.416C120.546 46.322 129.346 48.0318 137.527 51.4478C145.708 54.8638 153.109 59.9192 159.31 66.3252C165.51 72.7312 170.387 80.3625 173.662 88.7832C176.937 97.204 178.546 106.249 178.398 115.403L216.377 115.002Z" fill="#010101"/>
</g>
<path d="M93.1299 84.96C94.0233 84.96 94.7899 85.04 95.4299 85.2C96.0833 85.3467 96.5833 85.64 96.9299 86.08C97.2766 86.5067 97.4499 87.14 97.4499 87.98C97.4499 88.54 97.3766 89.0733 97.2299 89.58C97.0833 90.0733 96.8299 90.5867 96.4699 91.12C96.1233 91.64 95.6433 92.24 95.0299 92.92L91.1299 97.2C91.4766 97.1733 91.8433 97.1533 92.2299 97.14C92.6166 97.1267 92.9899 97.12 93.3499 97.12H97.9499V99H88.7299V97.8C88.7299 97.64 88.7499 97.4867 88.7899 97.34C88.8433 97.1933 88.9233 97.06 89.0299 96.94L92.9099 92.58C93.7766 91.66 94.4166 90.84 94.8299 90.12C95.2566 89.4 95.4566 88.7267 95.4299 88.1C95.4166 87.6867 95.3099 87.3867 95.1099 87.2C94.9233 87 94.6499 86.8667 94.2899 86.8C93.9299 86.7333 93.4899 86.7 92.9699 86.7C92.5433 86.7 92.1299 86.7067 91.7299 86.72C91.3433 86.7333 90.9299 86.7667 90.4899 86.82C90.0633 86.86 89.5566 86.92 88.9699 87L88.8499 85.48C89.4766 85.3333 90.0299 85.2267 90.5099 85.16C91.0033 85.08 91.4566 85.0267 91.8699 85C92.2966 84.9733 92.7166 84.96 93.1299 84.96ZM101.578 96.52C101.845 96.52 102.025 96.5733 102.118 96.68C102.225 96.7733 102.278 96.9533 102.278 97.22V98.5C102.278 98.9133 102.245 99.3 102.178 99.66C102.111 100.033 102.025 100.387 101.918 100.72C101.811 101.053 101.678 101.38 101.518 101.7L100.638 101.44C100.718 101.013 100.771 100.62 100.798 100.26C100.838 99.9133 100.858 99.4933 100.858 99C100.498 99 100.318 98.7933 100.318 98.38V97.22C100.331 96.9533 100.391 96.7733 100.498 96.68C100.618 96.5733 100.798 96.52 101.038 96.52H101.578ZM109.707 84.94C110.92 84.94 111.88 85.1867 112.587 85.68C113.294 86.16 113.8 86.9267 114.107 87.98C114.414 89.0333 114.567 90.4067 114.567 92.1C114.567 93.7933 114.414 95.1667 114.107 96.22C113.8 97.2733 113.294 98.0467 112.587 98.54C111.88 99.02 110.92 99.26 109.707 99.26C108.507 99.26 107.547 99.02 106.827 98.54C106.12 98.0467 105.614 97.2733 105.307 96.22C105 95.1667 104.847 93.7933 104.847 92.1C104.847 90.4067 105 89.0333 105.307 87.98C105.614 86.9267 106.12 86.16 106.827 85.68C107.547 85.1867 108.507 84.94 109.707 84.94ZM109.687 86.64C109.14 86.64 108.68 86.74 108.307 86.94C107.947 87.1267 107.654 87.4333 107.427 87.86C107.214 88.2867 107.054 88.8467 106.947 89.54C106.854 90.2333 106.807 91.0867 106.807 92.1C106.807 93.1 106.854 93.9533 106.947 94.66C107.054 95.3533 107.214 95.9133 107.427 96.34C107.654 96.7667 107.947 97.08 108.307 97.28C108.68 97.4667 109.14 97.56 109.687 97.56C110.247 97.56 110.714 97.4667 111.087 97.28C111.46 97.08 111.76 96.7667 111.987 96.34C112.214 95.9133 112.374 95.3533 112.467 94.66C112.56 93.9533 112.607 93.1 112.607 92.1C112.607 91.0867 112.56 90.2333 112.467 89.54C112.374 88.8467 112.214 88.2867 111.987 87.86C111.76 87.4333 111.46 87.1267 111.087 86.94C110.714 86.74 110.247 86.64 109.687 86.64ZM122.495 85.2L118.735 93.32C118.615 93.5733 118.608 93.7733 118.715 93.92C118.835 94.0533 119.002 94.12 119.215 94.12H127.355V95.48L125.535 95.68H118.015C117.642 95.68 117.322 95.5733 117.055 95.36C116.802 95.1467 116.635 94.8733 116.555 94.54C116.488 94.2067 116.528 93.8733 116.675 93.54L120.535 85.2H122.495ZM125.595 87.84V99H123.715V90.12L124.055 87.84H125.595ZM133.398 84.94C134.424 84.94 135.251 85.04 135.878 85.24C136.504 85.4267 136.964 85.7533 137.258 86.22C137.551 86.6867 137.698 87.3267 137.698 88.14C137.698 88.74 137.638 89.2867 137.518 89.78C137.398 90.26 137.191 90.66 136.898 90.98C136.618 91.3 136.204 91.5133 135.658 91.62V91.7C136.578 91.8467 137.204 92.22 137.538 92.82C137.884 93.42 138.064 94.2 138.078 95.16C138.091 96.0933 137.951 96.8667 137.658 97.48C137.378 98.08 136.911 98.5267 136.258 98.82C135.618 99.1133 134.738 99.26 133.618 99.26C132.884 99.26 132.138 99.22 131.378 99.14C130.631 99.0733 129.898 98.9933 129.178 98.9L129.298 97.32C129.764 97.36 130.204 97.4 130.618 97.44C131.044 97.4667 131.458 97.4867 131.858 97.5C132.271 97.5133 132.691 97.52 133.118 97.52C133.838 97.52 134.411 97.44 134.838 97.28C135.278 97.12 135.598 96.8533 135.798 96.48C135.998 96.0933 136.098 95.58 136.098 94.94C136.098 94.4467 136.031 94.02 135.898 93.66C135.764 93.3 135.504 93.02 135.118 92.82C134.744 92.6067 134.198 92.5 133.478 92.5L130.898 92.52V91.02H133.478C133.998 91.02 134.411 90.9533 134.718 90.82C135.038 90.6733 135.271 90.4933 135.418 90.28C135.578 90.0533 135.678 89.8 135.718 89.52C135.771 89.2267 135.798 88.9267 135.798 88.62C135.784 88.06 135.691 87.64 135.518 87.36C135.358 87.08 135.084 86.8933 134.698 86.8C134.311 86.7067 133.778 86.66 133.098 86.66C132.431 86.66 131.791 86.68 131.178 86.72C130.564 86.7467 130.024 86.7733 129.558 86.8L129.418 85.3C130.111 85.18 130.784 85.0933 131.438 85.04C132.091 84.9733 132.744 84.94 133.398 84.94Z" fill="black"/>
<path d="M79.288 113.2V127H76.788V113.2H79.288ZM88.654 116.94C90.4807 116.94 91.394 117.84 91.394 119.64V127H88.974V120.38C88.974 119.847 88.8807 119.48 88.694 119.28C88.5073 119.08 88.194 118.98 87.754 118.98C87.2607 118.98 86.754 119.093 86.234 119.32C85.714 119.533 85.0873 119.847 84.354 120.26L84.254 118.8C84.974 118.2 85.7073 117.74 86.454 117.42C87.2007 117.1 87.934 116.94 88.654 116.94ZM84.174 117.18L84.414 119.1L84.614 119.38V127H82.194V117.18H84.174ZM103.449 117.18L100.069 126.42C100.003 126.593 99.8961 126.733 99.7495 126.84C99.6161 126.947 99.4495 127 99.2495 127H97.1295C96.9428 127 96.7761 126.947 96.6295 126.84C96.4828 126.733 96.3761 126.593 96.3095 126.42L92.9295 117.18H95.5095L97.5695 123.62C97.6628 123.913 97.7495 124.213 97.8295 124.52C97.9095 124.813 97.9828 125.1 98.0495 125.38H98.3095C98.4028 125.087 98.4895 124.793 98.5695 124.5C98.6628 124.207 98.7495 123.913 98.8295 123.62L100.889 117.18H103.449ZM109.349 116.94C110.549 116.94 111.502 117.107 112.209 117.44C112.929 117.773 113.442 118.32 113.749 119.08C114.069 119.84 114.229 120.847 114.229 122.1C114.229 123.353 114.069 124.36 113.749 125.12C113.442 125.867 112.929 126.413 112.209 126.76C111.502 127.093 110.549 127.26 109.349 127.26C108.175 127.26 107.229 127.093 106.509 126.76C105.802 126.413 105.289 125.867 104.969 125.12C104.649 124.36 104.489 123.353 104.489 122.1C104.489 120.847 104.649 119.84 104.969 119.08C105.289 118.32 105.802 117.773 106.509 117.44C107.229 117.107 108.175 116.94 109.349 116.94ZM109.349 118.78C108.762 118.78 108.295 118.88 107.949 119.08C107.615 119.267 107.375 119.6 107.229 120.08C107.082 120.56 107.009 121.233 107.009 122.1C107.009 122.967 107.082 123.64 107.229 124.12C107.375 124.6 107.615 124.933 107.949 125.12C108.295 125.307 108.762 125.4 109.349 125.4C109.949 125.4 110.422 125.307 110.769 125.12C111.115 124.933 111.355 124.6 111.489 124.12C111.635 123.64 111.709 122.967 111.709 122.1C111.709 121.233 111.635 120.56 111.489 120.08C111.355 119.6 111.115 119.267 110.769 119.08C110.422 118.88 109.949 118.78 109.349 118.78ZM118.99 117.18V127H116.59V117.18H118.99ZM118.33 112.92C118.81 112.92 119.05 113.16 119.05 113.64V114.76C119.05 115.24 118.81 115.48 118.33 115.48H117.25C116.77 115.48 116.53 115.24 116.53 114.76V113.64C116.53 113.16 116.77 112.92 117.25 112.92H118.33ZM126.184 116.94C126.517 116.94 126.884 116.953 127.284 116.98C127.684 117.007 128.09 117.06 128.504 117.14C128.917 117.22 129.29 117.333 129.624 117.48L129.344 119C128.85 118.973 128.357 118.953 127.864 118.94C127.384 118.927 126.964 118.92 126.604 118.92C125.924 118.92 125.384 119.013 124.984 119.2C124.597 119.373 124.317 119.693 124.144 120.16C123.97 120.613 123.884 121.253 123.884 122.08C123.884 122.907 123.97 123.553 124.144 124.02C124.317 124.473 124.597 124.793 124.984 124.98C125.384 125.167 125.924 125.26 126.604 125.26C126.804 125.26 127.064 125.253 127.384 125.24C127.717 125.227 128.07 125.207 128.444 125.18C128.83 125.153 129.204 125.12 129.564 125.08L129.804 126.64C129.284 126.853 128.704 127.007 128.064 127.1C127.424 127.193 126.79 127.24 126.164 127.24C124.99 127.24 124.05 127.073 123.344 126.74C122.637 126.407 122.124 125.867 121.804 125.12C121.497 124.36 121.344 123.347 121.344 122.08C121.344 120.813 121.504 119.807 121.824 119.06C122.144 118.3 122.657 117.76 123.364 117.44C124.07 117.107 125.01 116.94 126.184 116.94ZM136.027 116.94C137.614 116.94 138.754 117.22 139.447 117.78C140.14 118.327 140.494 119.14 140.507 120.22C140.52 121.113 140.307 121.793 139.867 122.26C139.44 122.713 138.727 122.94 137.727 122.94H132.127V121.44H137.067C137.52 121.44 137.807 121.32 137.927 121.08C138.06 120.84 138.127 120.547 138.127 120.2C138.114 119.653 137.954 119.273 137.647 119.06C137.354 118.847 136.847 118.74 136.127 118.74C135.5 118.74 135.014 118.827 134.667 119C134.32 119.173 134.074 119.487 133.927 119.94C133.794 120.393 133.727 121.047 133.727 121.9C133.727 122.807 133.814 123.507 133.987 124C134.16 124.493 134.447 124.833 134.847 125.02C135.247 125.193 135.78 125.28 136.447 125.28C136.94 125.28 137.507 125.26 138.147 125.22C138.8 125.18 139.427 125.127 140.027 125.06L140.267 126.6C139.907 126.747 139.494 126.867 139.027 126.96C138.56 127.053 138.074 127.12 137.567 127.16C137.074 127.213 136.607 127.24 136.167 127.24C134.967 127.24 134 127.067 133.267 126.72C132.547 126.36 132.02 125.8 131.687 125.04C131.367 124.28 131.207 123.3 131.207 122.1C131.207 120.807 131.367 119.787 131.687 119.04C132.02 118.28 132.54 117.74 133.247 117.42C133.967 117.1 134.894 116.94 136.027 116.94ZM146.222 116.94C146.676 116.94 147.162 116.953 147.682 116.98C148.216 117.007 148.736 117.047 149.242 117.1C149.749 117.14 150.202 117.2 150.602 117.28L150.442 118.86C149.802 118.847 149.162 118.833 148.522 118.82C147.896 118.793 147.276 118.78 146.662 118.78C146.116 118.78 145.682 118.793 145.362 118.82C145.056 118.847 144.836 118.927 144.702 119.06C144.582 119.193 144.522 119.42 144.522 119.74C144.522 120.127 144.629 120.387 144.842 120.52C145.056 120.64 145.402 120.76 145.882 120.88L148.562 121.5C149.362 121.7 149.956 122.007 150.342 122.42C150.729 122.82 150.922 123.44 150.922 124.28C150.922 125.093 150.769 125.713 150.462 126.14C150.169 126.553 149.696 126.84 149.042 127C148.402 127.147 147.582 127.22 146.582 127.22C146.196 127.22 145.622 127.2 144.862 127.16C144.102 127.133 143.269 127.047 142.362 126.9L142.522 125.32C142.789 125.32 143.102 125.327 143.462 125.34C143.836 125.353 144.229 125.36 144.642 125.36C145.069 125.36 145.502 125.36 145.942 125.36C146.649 125.36 147.189 125.34 147.562 125.3C147.949 125.247 148.216 125.147 148.362 125C148.509 124.84 148.582 124.613 148.582 124.32C148.582 123.947 148.456 123.7 148.202 123.58C147.962 123.447 147.602 123.32 147.122 123.2L144.502 122.56C143.902 122.4 143.436 122.2 143.102 121.96C142.769 121.707 142.529 121.4 142.382 121.04C142.236 120.667 142.162 120.213 142.162 119.68C142.162 118.96 142.296 118.4 142.562 118C142.842 117.6 143.276 117.32 143.862 117.16C144.462 117 145.249 116.927 146.222 116.94Z" fill="black" fill-opacity="0.5"/>
<path d="M144.211 37.172C144.836 37.172 145.373 37.228 145.821 37.34C146.278 37.4427 146.628 37.648 146.871 37.956C147.113 38.2547 147.235 38.698 147.235 39.286C147.235 39.678 147.183 40.0513 147.081 40.406C146.978 40.7513 146.801 41.1107 146.549 41.484C146.306 41.848 145.97 42.268 145.541 42.744L142.811 45.74C143.053 45.7213 143.31 45.7073 143.581 45.698C143.851 45.6887 144.113 45.684 144.365 45.684H147.585V47H141.131V46.16C141.131 46.048 141.145 45.9407 141.173 45.838C141.21 45.7353 141.266 45.642 141.341 45.558L144.057 42.506C144.663 41.862 145.111 41.288 145.401 40.784C145.699 40.28 145.839 39.8087 145.821 39.37C145.811 39.0807 145.737 38.8707 145.597 38.74C145.466 38.6 145.275 38.5067 145.023 38.46C144.771 38.4133 144.463 38.39 144.099 38.39C143.8 38.39 143.511 38.3947 143.231 38.404C142.96 38.4133 142.671 38.4367 142.363 38.474C142.064 38.502 141.709 38.544 141.299 38.6L141.215 37.536C141.653 37.4333 142.041 37.3587 142.377 37.312C142.722 37.256 143.039 37.2187 143.329 37.2C143.627 37.1813 143.921 37.172 144.211 37.172ZM152.602 37.2C153.228 37.2 153.741 37.2513 154.142 37.354C154.553 37.4567 154.875 37.6107 155.108 37.816C155.342 38.0213 155.5 38.2873 155.584 38.614C155.678 38.9313 155.724 39.3093 155.724 39.748C155.724 40.1587 155.678 40.5227 155.584 40.84C155.491 41.1573 155.342 41.414 155.136 41.61C154.931 41.806 154.665 41.9227 154.338 41.96V42.016C154.758 42.0533 155.08 42.184 155.304 42.408C155.538 42.632 155.701 42.9307 155.794 43.304C155.888 43.668 155.934 44.0973 155.934 44.592C155.934 45.1893 155.841 45.6793 155.654 46.062C155.477 46.4353 155.146 46.7107 154.66 46.888C154.184 47.056 153.498 47.14 152.602 47.14C151.716 47.14 151.03 47.056 150.544 46.888C150.059 46.7107 149.718 46.4353 149.522 46.062C149.336 45.6793 149.242 45.1893 149.242 44.592C149.242 44.0973 149.289 43.668 149.382 43.304C149.485 42.9307 149.653 42.632 149.886 42.408C150.12 42.184 150.442 42.0533 150.852 42.016V41.96C150.526 41.9227 150.255 41.806 150.04 41.61C149.835 41.414 149.686 41.1573 149.592 40.84C149.499 40.5227 149.452 40.1587 149.452 39.748C149.452 39.3093 149.499 38.9313 149.592 38.614C149.686 38.2873 149.849 38.0213 150.082 37.816C150.316 37.6107 150.633 37.4567 151.034 37.354C151.445 37.2513 151.968 37.2 152.602 37.2ZM152.63 42.52C152.21 42.52 151.865 42.548 151.594 42.604C151.324 42.6507 151.114 42.7393 150.964 42.87C150.815 43.0007 150.708 43.1827 150.642 43.416C150.586 43.6493 150.558 43.948 150.558 44.312C150.558 44.732 150.614 45.0633 150.726 45.306C150.838 45.5487 151.044 45.7213 151.342 45.824C151.641 45.9267 152.066 45.978 152.616 45.978C153.158 45.978 153.568 45.9267 153.848 45.824C154.138 45.7213 154.334 45.5487 154.436 45.306C154.548 45.0633 154.604 44.732 154.604 44.312C154.604 43.9387 154.572 43.6353 154.506 43.402C154.45 43.1687 154.352 42.9913 154.212 42.87C154.072 42.7393 153.872 42.6507 153.61 42.604C153.358 42.548 153.032 42.52 152.63 42.52ZM152.616 38.278C152.103 38.278 151.711 38.3293 151.44 38.432C151.179 38.5253 150.997 38.6887 150.894 38.922C150.792 39.1553 150.74 39.4773 150.74 39.888C150.74 40.308 150.792 40.6347 150.894 40.868C150.997 41.092 151.184 41.246 151.454 41.33C151.725 41.414 152.117 41.456 152.63 41.456C153.144 41.456 153.531 41.414 153.792 41.33C154.054 41.2367 154.226 41.078 154.31 40.854C154.404 40.6207 154.45 40.2987 154.45 39.888C154.45 39.4773 154.404 39.1553 154.31 38.922C154.217 38.6887 154.035 38.5253 153.764 38.432C153.503 38.3293 153.12 38.278 152.616 38.278ZM158.683 45.264C158.87 45.264 159.001 45.3013 159.075 45.376C159.15 45.4413 159.187 45.5673 159.187 45.754V46.496C159.187 46.6827 159.15 46.8133 159.075 46.888C159.001 46.9627 158.87 47 158.683 47H158.277C158.091 47 157.96 46.9627 157.885 46.888C157.811 46.8133 157.773 46.6827 157.773 46.496V45.754C157.773 45.5673 157.811 45.4413 157.885 45.376C157.96 45.3013 158.091 45.264 158.277 45.264H158.683ZM163.939 37.172C164.565 37.172 165.101 37.228 165.549 37.34C166.007 37.4427 166.357 37.648 166.599 37.956C166.842 38.2547 166.963 38.698 166.963 39.286C166.963 39.678 166.912 40.0513 166.809 40.406C166.707 40.7513 166.529 41.1107 166.277 41.484C166.035 41.848 165.699 42.268 165.269 42.744L162.539 45.74C162.782 45.7213 163.039 45.7073 163.309 45.698C163.58 45.6887 163.841 45.684 164.093 45.684H167.313V47H160.859V46.16C160.859 46.048 160.873 45.9407 160.901 45.838C160.939 45.7353 160.995 45.642 161.069 45.558L163.785 42.506C164.392 41.862 164.84 41.288 165.129 40.784C165.428 40.28 165.568 39.8087 165.549 39.37C165.54 39.0807 165.465 38.8707 165.325 38.74C165.195 38.6 165.003 38.5067 164.751 38.46C164.499 38.4133 164.191 38.39 163.827 38.39C163.529 38.39 163.239 38.3947 162.959 38.404C162.689 38.4133 162.399 38.4367 162.091 38.474C161.793 38.502 161.438 38.544 161.027 38.6L160.943 37.536C161.382 37.4333 161.769 37.3587 162.105 37.312C162.451 37.256 162.768 37.2187 163.057 37.2C163.356 37.1813 163.65 37.172 163.939 37.172ZM170.945 37.158C171.505 37.158 171.953 37.256 172.289 37.452C172.625 37.6387 172.863 37.942 173.003 38.362C173.152 38.7727 173.227 39.328 173.227 40.028C173.227 40.7187 173.152 41.274 173.003 41.694C172.863 42.114 172.625 42.422 172.289 42.618C171.953 42.8047 171.505 42.898 170.945 42.898C170.385 42.898 169.937 42.8047 169.601 42.618C169.265 42.422 169.027 42.114 168.887 41.694C168.747 41.274 168.677 40.7187 168.677 40.028C168.677 39.328 168.747 38.7727 168.887 38.362C169.027 37.942 169.265 37.6387 169.601 37.452C169.937 37.256 170.385 37.158 170.945 37.158ZM170.945 37.984C170.628 37.984 170.38 38.0493 170.203 38.18C170.026 38.3013 169.895 38.5113 169.811 38.81C169.736 39.1087 169.699 39.5147 169.699 40.028C169.699 40.5413 169.736 40.9473 169.811 41.246C169.895 41.5447 170.026 41.7593 170.203 41.89C170.38 42.0113 170.628 42.072 170.945 42.072C171.262 42.072 171.51 42.0113 171.687 41.89C171.874 41.7593 172.004 41.5447 172.079 41.246C172.154 40.9473 172.191 40.5413 172.191 40.028C172.191 39.5147 172.154 39.1087 172.079 38.81C172.004 38.5113 171.874 38.3013 171.687 38.18C171.51 38.0493 171.262 37.984 170.945 37.984ZM177.847 37.34L171.687 47H170.749L176.923 37.34H177.847ZM177.693 41.4C178.262 41.4 178.71 41.498 179.037 41.694C179.373 41.89 179.611 42.198 179.751 42.618C179.891 43.0287 179.961 43.5747 179.961 44.256C179.961 44.9467 179.891 45.5067 179.751 45.936C179.611 46.356 179.373 46.6593 179.037 46.846C178.71 47.0327 178.262 47.126 177.693 47.126C177.133 47.126 176.685 47.0327 176.349 46.846C176.013 46.6593 175.775 46.356 175.635 45.936C175.495 45.5067 175.425 44.9467 175.425 44.256C175.425 43.5747 175.495 43.0287 175.635 42.618C175.775 42.198 176.013 41.89 176.349 41.694C176.685 41.498 177.133 41.4 177.693 41.4ZM177.679 42.226C177.362 42.226 177.11 42.2913 176.923 42.422C176.746 42.5433 176.62 42.7533 176.545 43.052C176.48 43.3413 176.447 43.7427 176.447 44.256C176.447 44.7693 176.48 45.18 176.545 45.488C176.62 45.7867 176.746 46.0013 176.923 46.132C177.11 46.2533 177.362 46.314 177.679 46.314C178.006 46.314 178.258 46.2533 178.435 46.132C178.612 46.0013 178.738 45.7867 178.813 45.488C178.897 45.18 178.939 44.7693 178.939 44.256C178.939 43.7427 178.897 43.3413 178.813 43.052C178.738 42.7533 178.612 42.5433 178.435 42.422C178.258 42.2913 178.006 42.226 177.679 42.226Z" fill="white"/>
<path d="M116.739 180.158C117.458 180.158 118.036 180.228 118.475 180.368C118.914 180.499 119.236 180.727 119.441 181.054C119.646 181.381 119.749 181.829 119.749 182.398C119.749 182.818 119.707 183.201 119.623 183.546C119.539 183.882 119.394 184.162 119.189 184.386C118.993 184.61 118.704 184.759 118.321 184.834V184.89C118.965 184.993 119.404 185.254 119.637 185.674C119.88 186.094 120.006 186.64 120.015 187.312C120.024 187.965 119.926 188.507 119.721 188.936C119.525 189.356 119.198 189.669 118.741 189.874C118.293 190.079 117.677 190.182 116.893 190.182C116.38 190.182 115.857 190.154 115.325 190.098C114.802 190.051 114.289 189.995 113.785 189.93L113.869 188.824C114.196 188.852 114.504 188.88 114.793 188.908C115.092 188.927 115.381 188.941 115.661 188.95C115.95 188.959 116.244 188.964 116.543 188.964C117.047 188.964 117.448 188.908 117.747 188.796C118.055 188.684 118.279 188.497 118.419 188.236C118.559 187.965 118.629 187.606 118.629 187.158C118.629 186.813 118.582 186.514 118.489 186.262C118.396 186.01 118.214 185.814 117.943 185.674C117.682 185.525 117.299 185.45 116.795 185.45L114.989 185.464V184.414H116.795C117.159 184.414 117.448 184.367 117.663 184.274C117.887 184.171 118.05 184.045 118.153 183.896C118.265 183.737 118.335 183.56 118.363 183.364C118.4 183.159 118.419 182.949 118.419 182.734C118.41 182.342 118.344 182.048 118.223 181.852C118.111 181.656 117.92 181.525 117.649 181.46C117.378 181.395 117.005 181.362 116.529 181.362C116.062 181.362 115.614 181.376 115.185 181.404C114.756 181.423 114.378 181.441 114.051 181.46L113.953 180.41C114.438 180.326 114.91 180.265 115.367 180.228C115.824 180.181 116.282 180.158 116.739 180.158ZM125.036 180.34V190H123.636V182.496C123.636 182.347 123.64 182.202 123.65 182.062C123.659 181.913 123.678 181.763 123.706 181.614L121.354 182.328L121.172 181.334L123.636 180.34H125.036ZM128.372 188.264C128.558 188.264 128.689 188.301 128.764 188.376C128.838 188.441 128.876 188.567 128.876 188.754V189.496C128.876 189.683 128.838 189.813 128.764 189.888C128.689 189.963 128.558 190 128.372 190H127.966C127.779 190 127.648 189.963 127.574 189.888C127.499 189.813 127.462 189.683 127.462 189.496V188.754C127.462 188.567 127.499 188.441 127.574 188.376C127.648 188.301 127.779 188.264 127.966 188.264H128.372ZM134.09 180.2C134.715 180.2 135.228 180.251 135.63 180.354C136.04 180.457 136.362 180.611 136.596 180.816C136.829 181.021 136.988 181.287 137.072 181.614C137.165 181.931 137.212 182.309 137.212 182.748C137.212 183.159 137.165 183.523 137.072 183.84C136.978 184.157 136.829 184.414 136.624 184.61C136.418 184.806 136.152 184.923 135.826 184.96V185.016C136.246 185.053 136.568 185.184 136.792 185.408C137.025 185.632 137.188 185.931 137.282 186.304C137.375 186.668 137.422 187.097 137.422 187.592C137.422 188.189 137.328 188.679 137.142 189.062C136.964 189.435 136.633 189.711 136.148 189.888C135.672 190.056 134.986 190.14 134.09 190.14C133.203 190.14 132.517 190.056 132.032 189.888C131.546 189.711 131.206 189.435 131.01 189.062C130.823 188.679 130.73 188.189 130.73 187.592C130.73 187.097 130.776 186.668 130.87 186.304C130.972 185.931 131.14 185.632 131.374 185.408C131.607 185.184 131.929 185.053 132.34 185.016V184.96C132.013 184.923 131.742 184.806 131.528 184.61C131.322 184.414 131.173 184.157 131.08 183.84C130.986 183.523 130.94 183.159 130.94 182.748C130.94 182.309 130.986 181.931 131.08 181.614C131.173 181.287 131.336 181.021 131.57 180.816C131.803 180.611 132.12 180.457 132.522 180.354C132.932 180.251 133.455 180.2 134.09 180.2ZM134.118 185.52C133.698 185.52 133.352 185.548 133.082 185.604C132.811 185.651 132.601 185.739 132.452 185.87C132.302 186.001 132.195 186.183 132.13 186.416C132.074 186.649 132.046 186.948 132.046 187.312C132.046 187.732 132.102 188.063 132.214 188.306C132.326 188.549 132.531 188.721 132.83 188.824C133.128 188.927 133.553 188.978 134.104 188.978C134.645 188.978 135.056 188.927 135.336 188.824C135.625 188.721 135.821 188.549 135.924 188.306C136.036 188.063 136.092 187.732 136.092 187.312C136.092 186.939 136.059 186.635 135.994 186.402C135.938 186.169 135.84 185.991 135.7 185.87C135.56 185.739 135.359 185.651 135.098 185.604C134.846 185.548 134.519 185.52 134.118 185.52ZM134.104 181.278C133.59 181.278 133.198 181.329 132.928 181.432C132.666 181.525 132.484 181.689 132.382 181.922C132.279 182.155 132.228 182.477 132.228 182.888C132.228 183.308 132.279 183.635 132.382 183.868C132.484 184.092 132.671 184.246 132.942 184.33C133.212 184.414 133.604 184.456 134.118 184.456C134.631 184.456 135.018 184.414 135.28 184.33C135.541 184.237 135.714 184.078 135.798 183.854C135.891 183.621 135.938 183.299 135.938 182.888C135.938 182.477 135.891 182.155 135.798 181.922C135.704 181.689 135.522 181.525 135.252 181.432C134.99 181.329 134.608 181.278 134.104 181.278ZM141.249 180.158C141.809 180.158 142.257 180.256 142.593 180.452C142.929 180.639 143.167 180.942 143.307 181.362C143.456 181.773 143.531 182.328 143.531 183.028C143.531 183.719 143.456 184.274 143.307 184.694C143.167 185.114 142.929 185.422 142.593 185.618C142.257 185.805 141.809 185.898 141.249 185.898C140.689 185.898 140.241 185.805 139.905 185.618C139.569 185.422 139.331 185.114 139.191 184.694C139.051 184.274 138.981 183.719 138.981 183.028C138.981 182.328 139.051 181.773 139.191 181.362C139.331 180.942 139.569 180.639 139.905 180.452C140.241 180.256 140.689 180.158 141.249 180.158ZM141.249 180.984C140.931 180.984 140.684 181.049 140.507 181.18C140.329 181.301 140.199 181.511 140.115 181.81C140.04 182.109 140.003 182.515 140.003 183.028C140.003 183.541 140.04 183.947 140.115 184.246C140.199 184.545 140.329 184.759 140.507 184.89C140.684 185.011 140.931 185.072 141.249 185.072C141.566 185.072 141.813 185.011 141.991 184.89C142.177 184.759 142.308 184.545 142.383 184.246C142.457 183.947 142.495 183.541 142.495 183.028C142.495 182.515 142.457 182.109 142.383 181.81C142.308 181.511 142.177 181.301 141.991 181.18C141.813 181.049 141.566 180.984 141.249 180.984ZM148.151 180.34L141.991 190H141.053L147.227 180.34H148.151ZM147.997 184.4C148.566 184.4 149.014 184.498 149.341 184.694C149.677 184.89 149.915 185.198 150.055 185.618C150.195 186.029 150.265 186.575 150.265 187.256C150.265 187.947 150.195 188.507 150.055 188.936C149.915 189.356 149.677 189.659 149.341 189.846C149.014 190.033 148.566 190.126 147.997 190.126C147.437 190.126 146.989 190.033 146.653 189.846C146.317 189.659 146.079 189.356 145.939 188.936C145.799 188.507 145.729 187.947 145.729 187.256C145.729 186.575 145.799 186.029 145.939 185.618C146.079 185.198 146.317 184.89 146.653 184.694C146.989 184.498 147.437 184.4 147.997 184.4ZM147.983 185.226C147.665 185.226 147.413 185.291 147.227 185.422C147.049 185.543 146.923 185.753 146.849 186.052C146.783 186.341 146.751 186.743 146.751 187.256C146.751 187.769 146.783 188.18 146.849 188.488C146.923 188.787 147.049 189.001 147.227 189.132C147.413 189.253 147.665 189.314 147.983 189.314C148.309 189.314 148.561 189.253 148.739 189.132C148.916 189.001 149.042 188.787 149.117 188.488C149.201 188.18 149.243 187.769 149.243 187.256C149.243 186.743 149.201 186.341 149.117 186.052C149.042 185.753 148.916 185.543 148.739 185.422C148.561 185.291 148.309 185.226 147.983 185.226Z" fill="black" fill-opacity="0.61"/>
<path d="M34.5421 76.5888L38.9478 81.0414C39.0846 81.1821 39.2141 81.2354 39.3364 81.2013C39.4532 81.1552 39.5377 81.0622 39.5899 80.9223L41.5814 75.5836L42.4733 75.9164L42.1592 77.1589L40.3194 82.091C40.2281 82.3358 40.0798 82.5196 39.8747 82.6423C39.6728 82.7563 39.4528 82.7987 39.2146 82.7696C38.9796 82.7318 38.7708 82.624 38.5881 82.4463L34.0626 77.8742L34.5421 76.5888ZM37.032 75.2015L44.3513 77.9318L43.8914 79.1649L38.0674 76.9923L36.6552 76.2115L37.032 75.2015ZM37.2494 68.8105C37.5463 68.0147 37.9429 67.4454 38.4394 67.1027C38.9271 66.7566 39.5538 66.6119 40.3197 66.6685C41.0856 66.725 42.0238 66.9605 43.1344 67.3747C44.2449 67.789 45.1081 68.2256 45.7239 68.6844C46.3397 69.1432 46.723 69.6647 46.8736 70.2489C47.0156 70.8298 46.9381 71.5181 46.6413 72.3139C46.3477 73.1009 45.9554 73.6718 45.4644 74.0266C44.968 74.3694 44.3368 74.5125 43.571 74.4559C42.8051 74.3994 41.8669 74.1639 40.7563 73.7496C39.6457 73.3354 38.7826 72.8988 38.1667 72.44C37.5509 71.9811 37.1721 71.4613 37.0302 70.8804C36.8828 70.2875 36.9558 69.5975 37.2494 68.8105ZM38.3595 69.2395C38.2257 69.598 38.1788 69.9242 38.2186 70.218C38.253 70.4998 38.3823 70.7672 38.6067 71.0202C38.8344 71.2645 39.1625 71.5065 39.5911 71.746C40.023 71.9769 40.5713 72.2163 41.2358 72.4642C41.8917 72.7088 42.4628 72.887 42.9491 72.9987C43.4299 73.0983 43.8363 73.1304 44.1684 73.0949C44.5036 73.0506 44.7809 72.9349 45.0002 72.7477C45.2139 72.5485 45.3877 72.2697 45.5214 71.9111C45.6584 71.5438 45.7114 71.2149 45.6803 70.9244C45.6405 70.6306 45.5084 70.3572 45.284 70.1042C45.0596 69.8511 44.7315 69.6092 44.2996 69.3784C43.8589 69.1443 43.3107 68.9049 42.6548 68.6602C41.9902 68.4123 41.4192 68.2341 40.9416 68.1257C40.464 68.0173 40.0576 67.9852 39.7223 68.0295C39.3871 68.0738 39.1125 68.1955 38.8988 68.3947C38.6763 68.5906 38.4965 68.8722 38.3595 69.2395ZM39.7517 62.1024C39.9475 61.5777 40.1959 61.1922 40.4969 60.9459C40.7893 60.6964 41.1567 60.5794 41.5991 60.595C42.0361 60.5986 42.5825 60.7228 43.2383 60.9674C43.8854 61.2088 44.3796 61.4729 44.721 61.7596C45.0655 62.0375 45.2709 62.3682 45.3371 62.7515C45.3946 63.1315 45.3255 63.5839 45.1297 64.1086C44.934 64.6333 44.69 65.0204 44.3977 65.27C44.0966 65.5163 43.7248 65.6316 43.2824 65.616C42.84 65.6004 42.2952 65.4719 41.6481 65.2305C40.9922 64.9858 40.4964 64.7261 40.1605 64.4514C39.8159 64.1735 39.6149 63.8445 39.5575 63.4644C39.4913 63.0811 39.556 62.6271 39.7517 62.1024ZM40.5257 62.3911C40.4147 62.6884 40.3895 62.943 40.45 63.1548C40.5017 63.3634 40.6527 63.5592 40.9032 63.7423C41.157 63.9166 41.5243 64.0935 42.0053 64.2729C42.4862 64.4523 42.8797 64.5593 43.1856 64.5937C43.4948 64.6194 43.7416 64.572 43.926 64.4515C44.1016 64.3277 44.2449 64.1172 44.3558 63.8199C44.4668 63.5226 44.4964 63.2696 44.4447 63.0611C44.3875 62.8405 44.232 62.6431 43.9783 62.4687C43.7245 62.2944 43.3572 62.1175 42.8762 61.9381C42.3953 61.7587 42.0018 61.6517 41.6959 61.6173C41.39 61.5829 41.1475 61.6319 40.9686 61.7644C40.7842 61.8849 40.6366 62.0938 40.5257 62.3911ZM42.3346 55.6993L49.2324 64.8471L48.9045 65.7259L42.0116 56.565L42.3346 55.6993ZM46.0847 57.2626C46.2837 56.7292 46.5321 56.3437 46.8299 56.1061C47.131 55.8598 47.5027 55.7445 47.9452 55.7601C48.3789 55.7724 48.9149 55.8977 49.5532 56.1358C50.2004 56.3772 50.7006 56.6385 51.0539 56.9197C51.3985 57.1977 51.5995 57.5267 51.657 57.9068C51.7177 58.2781 51.6486 58.7304 51.4496 59.2639C51.2538 59.7885 51.0098 60.1757 50.7175 60.4252C50.4252 60.6748 50.0578 60.7918 49.6153 60.7762C49.1641 60.7573 48.615 60.6271 47.9679 60.3857C47.3295 60.1476 46.8424 59.8912 46.5066 59.6165C46.162 59.3385 45.9566 59.0079 45.8904 58.6246C45.8242 58.2413 45.889 57.7873 46.0847 57.2626ZM46.8537 57.5644C46.7428 57.8617 46.7159 58.1207 46.7731 58.3412C46.8248 58.5498 46.9775 58.7412 47.2313 58.9156C47.4795 59.0779 47.8441 59.2488 48.3251 59.4282C48.806 59.6076 49.2022 59.7205 49.5136 59.767C49.8196 59.8014 50.0647 59.7584 50.2491 59.6379C50.4281 59.5054 50.573 59.2905 50.6839 58.9932C50.7981 58.6871 50.8293 58.4298 50.7776 58.2212C50.7171 58.0094 50.5601 57.8163 50.3063 57.642C50.0471 57.4557 49.677 57.2728 49.1961 57.0934C48.7151 56.9139 48.3244 56.813 48.0239 56.7906C47.718 56.7562 47.4772 56.8008 47.3016 56.9246C47.1172 57.0451 46.9679 57.2583 46.8537 57.5644Z" fill="white"/>
<defs>
<filter id="filter0_d_124_2208" x="101.629" y="7.42163" width="124.764" height="137.981" filterUnits="userSpaceOnUse" color-interpolation-filters="sRGB">
<feFlood flood-opacity="0" result="BackgroundImageFix"/>
<feColorMatrix in="SourceAlpha" type="matrix" values="0 0 0 0 0 0 0 0 0 0 0 0 0 0 0 0 0 0 127 0" result="hardAlpha"/>
<feOffset dy="20"/>
<feGaussianBlur stdDeviation="5"/>
<feComposite in2="hardAlpha" operator="out"/>
<feColorMatrix type="matrix" values="0 0 0 0 0 0 0 0 0 0 0 0 0 0 0 0 0 0 0.14 0"/>
<feBlend mode="normal" in2="BackgroundImageFix" result="effect1_dropShadow_124_2208"/>
<feBlend mode="normal" in="SourceGraphic" in2="effect1_dropShadow_124_2208" result="shape"/>
</filter>
</defs>
</svg>
