<svg width="132" height="27" viewBox="0 0 132 27" fill="none" xmlns="http://www.w3.org/2000/svg">
<path d="M10.1295 0.799998C12.4575 0.799998 14.2815 1.04 15.6015 1.52C16.9215 2 17.8575 2.828 18.4095 4.004C18.9855 5.18 19.2735 6.824 19.2735 8.936C19.2735 11.048 18.9975 12.692 18.4455 13.868C17.9175 15.044 17.0415 15.872 15.8175 16.352C14.5935 16.808 12.9375 17.036 10.8495 17.036C9.74547 17.036 8.66547 16.988 7.60947 16.892C6.55347 16.796 5.56947 16.676 4.65747 16.532C3.74547 16.388 2.96547 16.244 2.31747 16.1C1.66947 15.932 1.22547 15.776 0.985469 15.632L1.09347 12.896C2.50947 12.896 3.97347 12.896 5.48547 12.896C7.02147 12.896 8.53347 12.896 10.0215 12.896C10.9815 12.872 11.7255 12.752 12.2535 12.536C12.8055 12.32 13.1895 11.924 13.4055 11.348C13.6455 10.772 13.7655 9.968 13.7655 8.936C13.7655 7.88 13.6455 7.064 13.4055 6.488C13.1895 5.912 12.8055 5.516 12.2535 5.3C11.7255 5.06 10.9815 4.94 10.0215 4.94C7.81347 4.94 5.91747 4.952 4.33347 4.976C2.74947 5 1.68147 5.048 1.12947 5.12L0.589469 1.16C1.59747 1.04 2.54547 0.955998 3.43347 0.907999C4.32147 0.859998 5.28147 0.835998 6.31347 0.835998C7.36947 0.811998 8.64147 0.799998 10.1295 0.799998ZM6.09747 1.16V26H0.589469V1.16H6.09747ZM33.5632 1.16C34.0192 1.16 34.4152 1.292 34.7512 1.556C35.1112 1.82 35.3512 2.168 35.4712 2.6L42.6712 26H37.0552L31.9792 7.748C31.8832 7.34 31.7872 6.932 31.6912 6.524C31.5952 6.092 31.5112 5.684 31.4392 5.3H30.4672C30.3952 5.684 30.3112 6.092 30.2152 6.524C30.1432 6.932 30.0472 7.34 29.9272 7.748L24.8512 26H19.1992L26.4352 2.6C26.5552 2.168 26.7832 1.82 27.1192 1.556C27.4792 1.292 27.8872 1.16 28.3432 1.16H33.5632ZM37.3792 15.308V19.448H24.4912V15.308H37.3792ZM62.6054 1.16L54.2174 18.116H49.0334L40.6094 1.16H46.3334L50.5094 10.304C50.7254 10.784 50.9054 11.3 51.0494 11.852C51.1934 12.404 51.3254 12.932 51.4454 13.436H51.8054C51.9494 12.932 52.0934 12.404 52.2374 11.852C52.3814 11.3 52.5494 10.784 52.7414 10.304L56.8814 1.16H62.6054ZM54.3614 14.768V26H48.8534V14.768H54.3614Z" fill="black"/>
<path d="M74.6763 0.799998C77.0043 0.799998 78.8283 1.04 80.1483 1.52C81.4683 2 82.4043 2.828 82.9563 4.004C83.5323 5.18 83.8203 6.824 83.8203 8.936C83.8203 11.048 83.5443 12.692 82.9923 13.868C82.4643 15.044 81.5883 15.872 80.3643 16.352C79.1403 16.808 77.4843 17.036 75.3963 17.036C74.2923 17.036 73.2123 16.988 72.1563 16.892C71.1003 16.796 70.1163 16.676 69.2043 16.532C68.2923 16.388 67.5123 16.244 66.8643 16.1C66.2163 15.932 65.7723 15.776 65.5323 15.632L65.6403 12.896C67.0563 12.896 68.5203 12.896 70.0323 12.896C71.5683 12.896 73.0803 12.896 74.5683 12.896C75.5283 12.872 76.2723 12.752 76.8003 12.536C77.3523 12.32 77.7363 11.924 77.9523 11.348C78.1923 10.772 78.3123 9.968 78.3123 8.936C78.3123 7.88 78.1923 7.064 77.9523 6.488C77.7363 5.912 77.3523 5.516 76.8003 5.3C76.2723 5.06 75.5283 4.94 74.5683 4.94C72.3603 4.94 70.4643 4.952 68.8803 4.976C67.2963 5 66.2283 5.048 65.6763 5.12L65.1363 1.16C66.1443 1.04 67.0923 0.955998 67.9803 0.907999C68.8683 0.859998 69.8283 0.835998 70.8603 0.835998C71.9163 0.811998 73.1883 0.799998 74.6763 0.799998ZM70.6443 1.16V26H65.1363V1.16H70.6443ZM96.9663 0.799998C99.1503 0.799998 100.914 1.028 102.258 1.484C103.626 1.916 104.622 2.672 105.246 3.752C105.894 4.808 106.218 6.284 106.218 8.18C106.218 9.332 106.062 10.352 105.75 11.24C105.462 12.104 104.97 12.8 104.274 13.328C103.578 13.856 102.63 14.192 101.43 14.336V14.516C101.862 14.588 102.306 14.756 102.762 15.02C103.242 15.284 103.686 15.68 104.094 16.208C104.502 16.712 104.802 17.396 104.994 18.26L107.154 26H101.358L99.4503 18.44C99.2343 17.624 98.9103 17.06 98.4783 16.748C98.0703 16.436 97.4943 16.28 96.7503 16.28C95.1183 16.28 93.7383 16.28 92.6103 16.28C91.5063 16.256 90.5703 16.232 89.8023 16.208C89.0583 16.184 88.3863 16.16 87.7863 16.136L87.8943 12.14H96.8583C97.8183 12.14 98.5743 12.044 99.1263 11.852C99.7023 11.636 100.098 11.264 100.314 10.736C100.554 10.208 100.674 9.476 100.674 8.54C100.674 7.58 100.554 6.848 100.314 6.344C100.098 5.816 99.7023 5.456 99.1263 5.264C98.5743 5.048 97.8183 4.94 96.8583 4.94C94.6023 4.94 92.6943 4.952 91.1343 4.976C89.5743 5 88.5063 5.036 87.9303 5.084L87.3903 1.16C88.3983 1.04 89.3463 0.955998 90.2343 0.907999C91.1223 0.859998 92.0943 0.835998 93.1503 0.835998C94.2063 0.811998 95.4783 0.799998 96.9663 0.799998ZM92.8263 1.16V26H87.3903V1.16H92.8263ZM120.493 0.655998C122.461 0.655998 124.129 0.871998 125.497 1.304C126.865 1.712 127.957 2.408 128.773 3.392C129.613 4.352 130.225 5.672 130.609 7.352C130.993 9.008 131.185 11.084 131.185 13.58C131.185 16.076 130.993 18.164 130.609 19.844C130.225 21.5 129.613 22.82 128.773 23.804C127.957 24.764 126.865 25.46 125.497 25.892C124.129 26.3 122.461 26.504 120.493 26.504C118.525 26.504 116.857 26.3 115.489 25.892C114.121 25.46 113.017 24.764 112.177 23.804C111.337 22.82 110.725 21.5 110.341 19.844C109.957 18.164 109.765 16.076 109.765 13.58C109.765 11.084 109.957 9.008 110.341 7.352C110.725 5.672 111.337 4.352 112.177 3.392C113.017 2.408 114.121 1.712 115.489 1.304C116.857 0.871998 118.525 0.655998 120.493 0.655998ZM120.493 5.012C119.221 5.012 118.225 5.264 117.505 5.768C116.809 6.272 116.305 7.148 115.993 8.396C115.705 9.62 115.561 11.348 115.561 13.58C115.561 15.788 115.705 17.516 115.993 18.764C116.305 20.012 116.809 20.888 117.505 21.392C118.225 21.896 119.221 22.148 120.493 22.148C121.741 22.148 122.713 21.896 123.409 21.392C124.129 20.888 124.633 20.012 124.921 18.764C125.233 17.516 125.389 15.788 125.389 13.58C125.389 11.348 125.233 9.62 124.921 8.396C124.633 7.148 124.129 6.272 123.409 5.768C122.713 5.264 121.741 5.012 120.493 5.012Z" fill="white"/>
</svg>
