<svg width="153" height="46" viewBox="0 0 153 46" fill="none" xmlns="http://www.w3.org/2000/svg">
<path d="M14.2656 23.1406H5.6875V17.2109H14.2656C15.5312 17.2109 16.5469 17 17.3125 16.5781C18.0938 16.1562 18.6641 15.5781 19.0234 14.8438C19.3984 14.0938 19.5859 13.25 19.5859 12.3125C19.5859 11.3438 19.3984 10.4453 19.0234 9.61719C18.6641 8.77344 18.0938 8.09375 17.3125 7.57812C16.5469 7.0625 15.5312 6.80469 14.2656 6.80469H8.45312V35H0.8125V0.875H14.2656C16.9844 0.875 19.3125 1.36719 21.25 2.35156C23.2031 3.33594 24.6953 4.6875 25.7266 6.40625C26.7734 8.10938 27.2969 10.0625 27.2969 12.2656C27.2969 14.4688 26.7734 16.3828 25.7266 18.0078C24.6953 19.6328 23.2031 20.8984 21.25 21.8047C19.3125 22.6953 16.9844 23.1406 14.2656 23.1406ZM44.7109 28.9531V18.0781C44.7109 17.3125 44.5938 16.6562 44.3594 16.1094C44.125 15.5625 43.7578 15.1328 43.2578 14.8203C42.7578 14.5078 42.1094 14.3516 41.3125 14.3516C40.6406 14.3516 40.0547 14.4688 39.5547 14.7031C39.0703 14.9375 38.6953 15.2734 38.4297 15.7109C38.1797 16.1484 38.0547 16.6875 38.0547 17.3281H30.7422C30.7422 16.1875 31 15.125 31.5156 14.1406C32.0312 13.1562 32.7656 12.2891 33.7188 11.5391C34.6875 10.7891 35.8438 10.2109 37.1875 9.80469C38.5312 9.38281 40.0391 9.17188 41.7109 9.17188C43.6953 9.17188 45.4609 9.50781 47.0078 10.1797C48.5703 10.8359 49.8047 11.8281 50.7109 13.1562C51.6172 14.4688 52.0703 16.125 52.0703 18.125V28.7422C52.0703 30.2734 52.1562 31.4766 52.3281 32.3516C52.5156 33.2109 52.7812 33.9609 53.125 34.6016V35H45.7422C45.3984 34.2656 45.1406 33.3594 44.9688 32.2812C44.7969 31.1875 44.7109 30.0781 44.7109 28.9531ZM45.625 19.5312L45.6719 23.5625H42.0391C41.2266 23.5625 40.5234 23.6641 39.9297 23.8672C39.3516 24.0703 38.8828 24.3516 38.5234 24.7109C38.1641 25.0547 37.8984 25.4609 37.7266 25.9297C37.5703 26.3828 37.4922 26.8828 37.4922 27.4297C37.4922 27.9453 37.6172 28.4141 37.8672 28.8359C38.1172 29.2422 38.4609 29.5625 38.8984 29.7969C39.3359 30.0312 39.8438 30.1484 40.4219 30.1484C41.375 30.1484 42.1875 29.9609 42.8594 29.5859C43.5469 29.2109 44.0781 28.7578 44.4531 28.2266C44.8281 27.6797 45.0156 27.1719 45.0156 26.7031L46.7734 29.75C46.4922 30.375 46.1484 31.0234 45.7422 31.6953C45.3359 32.3516 44.8203 32.9688 44.1953 33.5469C43.5703 34.1094 42.8125 34.5703 41.9219 34.9297C41.0469 35.2891 39.9922 35.4688 38.7578 35.4688C37.1641 35.4688 35.7188 35.1484 34.4219 34.5078C33.125 33.8516 32.0859 32.9531 31.3047 31.8125C30.5391 30.6719 30.1562 29.3594 30.1562 27.875C30.1562 26.5469 30.3984 25.3672 30.8828 24.3359C31.3672 23.3047 32.0938 22.4297 33.0625 21.7109C34.0469 20.9922 35.2812 20.4531 36.7656 20.0938C38.25 19.7188 39.9844 19.5312 41.9688 19.5312H45.625ZM64.1406 32.0703L70.7734 9.64062H78.6484L68.4531 38.7969C68.2344 39.4375 67.9375 40.125 67.5625 40.8594C67.2031 41.5938 66.7109 42.2969 66.0859 42.9688C65.4766 43.6406 64.6953 44.1875 63.7422 44.6094C62.7891 45.0312 61.6172 45.2422 60.2266 45.2422C59.5234 45.2422 58.9766 45.2031 58.5859 45.125C58.2109 45.0625 57.7109 44.9531 57.0859 44.7969L57.0625 39.4766C57.2656 39.4766 57.4453 39.4766 57.6016 39.4766C57.7734 39.4922 57.9453 39.5 58.1172 39.5C58.9922 39.5 59.6953 39.4062 60.2266 39.2188C60.7734 39.0312 61.1953 38.75 61.4922 38.375C61.8047 38.0156 62.0547 37.5547 62.2422 36.9922L64.1406 32.0703ZM61.9141 9.64062L67.1641 27.6875L68.0547 35.4453L63.1094 35.7031L54.0391 9.64062H61.9141Z" fill="black"/>
<path d="M94.8438 23.1406H86.2656V17.2109H94.8438C96.1094 17.2109 97.125 17 97.8906 16.5781C98.6719 16.1562 99.2422 15.5781 99.6016 14.8438C99.9766 14.0938 100.164 13.25 100.164 12.3125C100.164 11.3438 99.9766 10.4453 99.6016 9.61719C99.2422 8.77344 98.6719 8.09375 97.8906 7.57812C97.125 7.0625 96.1094 6.80469 94.8438 6.80469H89.0312V35H81.3906V0.875H94.8438C97.5625 0.875 99.8906 1.36719 101.828 2.35156C103.781 3.33594 105.273 4.6875 106.305 6.40625C107.352 8.10938 107.875 10.0625 107.875 12.2656C107.875 14.4688 107.352 16.3828 106.305 18.0078C105.273 19.6328 103.781 20.8984 101.828 21.8047C99.8906 22.6953 97.5625 23.1406 94.8438 23.1406ZM119.477 15.5469V35H112.164V9.64062H119.031L119.477 15.5469ZM127.047 9.45312L126.93 16.2734C126.617 16.2266 126.211 16.1875 125.711 16.1562C125.211 16.1094 124.781 16.0859 124.422 16.0859C123.484 16.0859 122.672 16.2031 121.984 16.4375C121.312 16.6562 120.75 16.9844 120.297 17.4219C119.859 17.8594 119.531 18.4062 119.312 19.0625C119.094 19.7031 118.984 20.4453 118.984 21.2891L117.602 20.6094C117.602 18.9375 117.766 17.4062 118.094 16.0156C118.422 14.625 118.898 13.4219 119.523 12.4062C120.148 11.375 120.914 10.5781 121.82 10.0156C122.727 9.45312 123.758 9.17188 124.914 9.17188C125.289 9.17188 125.672 9.19531 126.062 9.24219C126.453 9.28906 126.781 9.35938 127.047 9.45312ZM128.195 22.5781V22.0859C128.195 20.2266 128.461 18.5156 128.992 16.9531C129.523 15.375 130.305 14.0078 131.336 12.8516C132.367 11.6953 133.633 10.7969 135.133 10.1562C136.633 9.5 138.352 9.17188 140.289 9.17188C142.258 9.17188 143.992 9.5 145.492 10.1562C147.008 10.7969 148.281 11.6953 149.312 12.8516C150.344 14.0078 151.125 15.375 151.656 16.9531C152.188 18.5156 152.453 20.2266 152.453 22.0859V22.5781C152.453 24.4219 152.188 26.1328 151.656 27.7109C151.125 29.2734 150.344 30.6406 149.312 31.8125C148.281 32.9688 147.016 33.8672 145.516 34.5078C144.016 35.1484 142.289 35.4688 140.336 35.4688C138.398 35.4688 136.672 35.1484 135.156 34.5078C133.641 33.8672 132.367 32.9688 131.336 31.8125C130.305 30.6406 129.523 29.2734 128.992 27.7109C128.461 26.1328 128.195 24.4219 128.195 22.5781ZM135.531 22.0859V22.5781C135.531 23.5781 135.609 24.5156 135.766 25.3906C135.938 26.2656 136.211 27.0312 136.586 27.6875C136.961 28.3438 137.453 28.8594 138.062 29.2344C138.688 29.5938 139.445 29.7734 140.336 29.7734C141.227 29.7734 141.977 29.5938 142.586 29.2344C143.195 28.8594 143.688 28.3438 144.062 27.6875C144.438 27.0312 144.703 26.2656 144.859 25.3906C145.031 24.5156 145.117 23.5781 145.117 22.5781V22.0859C145.117 21.1016 145.031 20.1797 144.859 19.3203C144.703 18.4453 144.438 17.6719 144.062 17C143.688 16.3281 143.188 15.8047 142.562 15.4297C141.953 15.0547 141.195 14.8672 140.289 14.8672C139.414 14.8672 138.672 15.0547 138.062 15.4297C137.453 15.8047 136.961 16.3281 136.586 17C136.211 17.6719 135.938 18.4453 135.766 19.3203C135.609 20.1797 135.531 21.1016 135.531 22.0859Z" fill="#00A3FF"/>
</svg>
