<svg width="201" height="40" viewBox="0 0 201 40" fill="none" xmlns="http://www.w3.org/2000/svg">
<path d="M15.37 0.499997C18.9267 0.499997 21.7133 0.866665 23.73 1.6C25.7467 2.33333 27.1767 3.59833 28.02 5.395C28.9 7.19167 29.34 9.70333 29.34 12.93C29.34 16.1567 28.9183 18.6683 28.075 20.465C27.2683 22.2617 25.93 23.5267 24.06 24.26C22.19 24.9567 19.66 25.305 16.47 25.305C14.7833 25.305 13.1333 25.2317 11.52 25.085C9.90667 24.9383 8.40333 24.755 7.01 24.535C5.61667 24.315 4.425 24.095 3.435 23.875C2.445 23.6183 1.76667 23.38 1.4 23.16L1.565 18.98C3.72833 18.98 5.965 18.98 8.275 18.98C10.6217 18.98 12.9317 18.98 15.205 18.98C16.6717 18.9433 17.8083 18.76 18.615 18.43C19.4583 18.1 20.045 17.495 20.375 16.615C20.7417 15.735 20.925 14.5067 20.925 12.93C20.925 11.3167 20.7417 10.07 20.375 9.19C20.045 8.31 19.4583 7.705 18.615 7.375C17.8083 7.00833 16.6717 6.825 15.205 6.825C11.8317 6.825 8.935 6.84333 6.515 6.88C4.095 6.91667 2.46333 6.99 1.62 7.1L0.795 1.05C2.335 0.866664 3.78333 0.738331 5.14 0.664999C6.49667 0.591664 7.96333 0.554997 9.54 0.554997C11.1533 0.51833 13.0967 0.499997 15.37 0.499997ZM9.21 1.05V39H0.795V1.05H9.21ZM51.1716 1.05C51.8682 1.05 52.4732 1.25166 52.9866 1.655C53.5366 2.05833 53.9032 2.59 54.0866 3.25L65.0866 39H56.5066L48.7516 11.115C48.6049 10.4917 48.4582 9.86833 48.3116 9.245C48.1649 8.585 48.0366 7.96167 47.9266 7.375H46.4416C46.3316 7.96167 46.2032 8.585 46.0566 9.245C45.9466 9.86833 45.7999 10.4917 45.6166 11.115L37.8616 39H29.2266L40.2816 3.25C40.4649 2.59 40.8132 2.05833 41.3266 1.655C41.8766 1.25166 42.4999 1.05 43.1966 1.05H51.1716ZM57.0016 22.665V28.99H37.3116V22.665H57.0016ZM95.5415 1.05L82.7265 26.955H74.8065L61.9365 1.05H70.6815L77.0615 15.02C77.3915 15.7533 77.6665 16.5417 77.8865 17.385C78.1065 18.2283 78.3082 19.035 78.4915 19.805H79.0415C79.2615 19.035 79.4815 18.2283 79.7015 17.385C79.9215 16.5417 80.1782 15.7533 80.4715 15.02L86.7965 1.05H95.5415ZM82.9465 21.84V39H74.5315V21.84H82.9465Z" fill="white"/>
<path d="M113.983 0.499997C117.54 0.499997 120.327 0.866665 122.343 1.6C124.36 2.33333 125.79 3.59833 126.633 5.395C127.513 7.19167 127.953 9.70333 127.953 12.93C127.953 16.1567 127.532 18.6683 126.688 20.465C125.882 22.2617 124.543 23.5267 122.673 24.26C120.803 24.9567 118.273 25.305 115.083 25.305C113.397 25.305 111.747 25.2317 110.133 25.085C108.52 24.9383 107.017 24.755 105.623 24.535C104.23 24.315 103.038 24.095 102.048 23.875C101.058 23.6183 100.38 23.38 100.013 23.16L100.178 18.98C102.342 18.98 104.578 18.98 106.888 18.98C109.235 18.98 111.545 18.98 113.818 18.98C115.285 18.9433 116.422 18.76 117.228 18.43C118.072 18.1 118.658 17.495 118.988 16.615C119.355 15.735 119.538 14.5067 119.538 12.93C119.538 11.3167 119.355 10.07 118.988 9.19C118.658 8.31 118.072 7.705 117.228 7.375C116.422 7.00833 115.285 6.825 113.818 6.825C110.445 6.825 107.548 6.84333 105.128 6.88C102.708 6.91667 101.077 6.99 100.233 7.1L99.4083 1.05C100.948 0.866664 102.397 0.738331 103.753 0.664999C105.11 0.591664 106.577 0.554997 108.153 0.554997C109.767 0.51833 111.71 0.499997 113.983 0.499997ZM107.823 1.05V39H99.4083V1.05H107.823ZM148.037 0.499997C151.374 0.499997 154.069 0.848331 156.122 1.545C158.212 2.205 159.734 3.36 160.687 5.01C161.677 6.62333 162.172 8.87833 162.172 11.775C162.172 13.535 161.934 15.0933 161.457 16.45C161.017 17.77 160.266 18.8333 159.202 19.64C158.139 20.4467 156.691 20.96 154.857 21.18V21.455C155.517 21.565 156.196 21.8217 156.892 22.225C157.626 22.6283 158.304 23.2333 158.927 24.04C159.551 24.81 160.009 25.855 160.302 27.175L163.602 39H154.747L151.832 27.45C151.502 26.2033 151.007 25.3417 150.347 24.865C149.724 24.3883 148.844 24.15 147.707 24.15C145.214 24.15 143.106 24.15 141.382 24.15C139.696 24.1133 138.266 24.0767 137.092 24.04C135.956 24.0033 134.929 23.9667 134.012 23.93L134.177 17.825H147.872C149.339 17.825 150.494 17.6783 151.337 17.385C152.217 17.055 152.822 16.4867 153.152 15.68C153.519 14.8733 153.702 13.755 153.702 12.325C153.702 10.8583 153.519 9.74 153.152 8.97C152.822 8.16333 152.217 7.61333 151.337 7.32C150.494 6.99 149.339 6.825 147.872 6.825C144.426 6.825 141.511 6.84333 139.127 6.88C136.744 6.91667 135.112 6.97167 134.232 7.045L133.407 1.05C134.947 0.866664 136.396 0.738331 137.752 0.664999C139.109 0.591664 140.594 0.554997 142.207 0.554997C143.821 0.51833 145.764 0.499997 148.037 0.499997ZM141.712 1.05V39H133.407V1.05H141.712ZM183.982 0.279997C186.988 0.279997 189.537 0.609997 191.627 1.27C193.717 1.89333 195.385 2.95667 196.632 4.46C197.915 5.92667 198.85 7.94333 199.437 10.51C200.023 13.04 200.317 16.2117 200.317 20.025C200.317 23.8383 200.023 27.0283 199.437 29.595C198.85 32.125 197.915 34.1417 196.632 35.645C195.385 37.1117 193.717 38.175 191.627 38.835C189.537 39.4583 186.988 39.77 183.982 39.77C180.975 39.77 178.427 39.4583 176.337 38.835C174.247 38.175 172.56 37.1117 171.277 35.645C169.993 34.1417 169.058 32.125 168.472 29.595C167.885 27.0283 167.592 23.8383 167.592 20.025C167.592 16.2117 167.885 13.04 168.472 10.51C169.058 7.94333 169.993 5.92667 171.277 4.46C172.56 2.95667 174.247 1.89333 176.337 1.27C178.427 0.609997 180.975 0.279997 183.982 0.279997ZM183.982 6.935C182.038 6.935 180.517 7.32 179.417 8.09C178.353 8.86 177.583 10.1983 177.107 12.105C176.667 13.975 176.447 16.615 176.447 20.025C176.447 23.3983 176.667 26.0383 177.107 27.945C177.583 29.8517 178.353 31.19 179.417 31.96C180.517 32.73 182.038 33.115 183.982 33.115C185.888 33.115 187.373 32.73 188.437 31.96C189.537 31.19 190.307 29.8517 190.747 27.945C191.223 26.0383 191.462 23.3983 191.462 20.025C191.462 16.615 191.223 13.975 190.747 12.105C190.307 10.1983 189.537 8.86 188.437 8.09C187.373 7.32 185.888 6.935 183.982 6.935Z" fill="#093F9D"/>
</svg>
