<svg width="24" height="24" viewBox="0 0 24 24" fill="none" xmlns="http://www.w3.org/2000/svg">
<path d="M20.9992 21.9955H3L3.0008 15L9 12V10H15V12L20.9992 15V21.9955Z" stroke="#141B34" stroke-width="1.5" stroke-linejoin="round"/>
<path d="M14 17C14 18.1046 13.1046 19 12 19C10.8954 19 10 18.1046 10 17C10 15.8954 10.8954 15 12 15C13.1046 15 14 15.8954 14 17Z" stroke="#141B34" stroke-width="1.5"/>
<path d="M16.8338 8H16.0838V8.51097L16.5593 8.69797L16.8338 8ZM21.9196 10L21.6451 10.698C21.8633 10.7837 22.1089 10.7626 22.3092 10.6409C22.5095 10.5191 22.6413 10.3108 22.6656 10.0776L21.9196 10ZM7.16754 8L7.44199 8.69798L7.91754 8.51099V8H7.16754ZM2.08173 9.99979L1.33576 10.0774C1.36002 10.3105 1.49186 10.5189 1.69213 10.6407C1.89239 10.7624 2.13806 10.7835 2.35618 10.6978L2.08173 9.99979ZM20.774 4.52212C19.7496 3.85465 18.6221 3.31114 17.0264 2.88708L16.6412 4.33677C18.0799 4.71909 19.0612 5.19637 19.9548 5.77872L20.774 4.52212ZM16.0838 3.61193V8H17.5838V3.61193H16.0838ZM16.5593 8.69797L21.6451 10.698L22.1941 9.30203L17.1083 7.30203L16.5593 8.69797ZM22.6656 10.0776C22.8284 8.51312 22.9951 5.97054 20.774 4.52212L19.9548 5.77872C21.3369 6.67993 21.3454 8.27175 21.1737 9.92237L22.6656 10.0776ZM17.0264 2.88708C15.4223 2.46079 13.7093 2.24938 12.0004 2.25V3.75C13.5882 3.74943 15.1715 3.94619 16.6412 4.33677L17.0264 2.88708ZM4.04651 5.77851C4.9402 5.19616 5.92149 4.71888 7.36016 4.33656L6.97491 2.88687C5.37923 3.31092 4.25194 3.8543 3.2276 4.52177L4.04651 5.77851ZM6.41754 3.61171V8H7.91754V3.61171H6.41754ZM6.89309 7.30202L1.80728 9.30181L2.35618 10.6978L7.44199 8.69798L6.89309 7.30202ZM2.8277 9.92216C2.65592 8.27154 2.66449 6.67972 4.04651 5.77851L3.2276 4.52177C1.00643 5.97019 1.17294 8.51291 1.33576 10.0774L2.8277 9.92216ZM7.36016 4.33656C8.82985 3.94599 10.4125 3.74942 12.0004 3.75V2.25C10.2916 2.24938 8.5791 2.46056 6.97491 2.88687L7.36016 4.33656Z" fill="#141B34"/>
</svg>
