<svg width="63" height="63" viewBox="0 0 63 63" fill="none" xmlns="http://www.w3.org/2000/svg">
<path d="M55.125 17.0625C55.125 21.4117 51.5994 24.9375 47.25 24.9375C42.9006 24.9375 39.375 21.4117 39.375 17.0625C39.375 12.7133 42.9006 9.1875 47.25 9.1875C51.5994 9.1875 55.125 12.7133 55.125 17.0625Z" stroke="#00A3FF" stroke-width="3" stroke-linejoin="round"/>
<path d="M23.625 31.5C23.625 35.8494 20.0992 39.375 15.75 39.375C11.4008 39.375 7.875 35.8494 7.875 31.5C7.875 27.1506 11.4008 23.625 15.75 23.625C20.0992 23.625 23.625 27.1506 23.625 31.5Z" stroke="#00A3FF" stroke-width="3" stroke-linejoin="round"/>
<path d="M55.125 45.9375C55.125 50.2869 51.5994 53.8125 47.25 53.8125C42.9006 53.8125 39.375 50.2869 39.375 45.9375C39.375 41.5881 42.9006 38.0625 47.25 38.0625C51.5994 38.0625 55.125 41.5881 55.125 45.9375Z" stroke="#00A3FF" stroke-width="3" stroke-linejoin="round"/>
<path d="M22.9121 28.2189L39.9746 20.3452M22.9121 34.7827L39.9746 42.6564" stroke="#00A3FF" stroke-width="3" stroke-linejoin="round"/>
</svg>
